<svg width="16" height="16" viewBox="0 0 16 16" fill="none" xmlns="http://www.w3.org/2000/svg">
<path d="M8.66666 4.99996C8.66666 5.36815 8.36819 5.66663 8 5.66663C7.63181 5.66663 7.33333 5.36815 7.33333 4.99996C7.33333 4.63177 7.63181 4.33329 8 4.33329C8.36819 4.33329 8.66666 4.63177 8.66666 4.99996Z" fill="#313333"/>
<path d="M6.66666 7.49996C6.66666 7.22382 6.89052 6.99996 7.16666 6.99996H8.16666C8.44281 6.99996 8.66666 7.22382 8.66666 7.49996V10.3333H9.16666C9.44281 10.3333 9.66666 10.5571 9.66666 10.8333C9.66666 11.1094 9.44281 11.3333 9.16666 11.3333H7.16666C6.89052 11.3333 6.66666 11.1094 6.66666 10.8333C6.66666 10.5571 6.89052 10.3333 7.16666 10.3333H7.66666V7.99996H7.16666C6.89052 7.99996 6.66666 7.7761 6.66666 7.49996Z" fill="#313333"/>
<path fill-rule="evenodd" clip-rule="evenodd" d="M8 0.666626C3.94991 0.666626 0.666664 3.94987 0.666664 7.99996C0.666664 12.05 3.94991 15.3333 8 15.3333C12.0501 15.3333 15.3333 12.05 15.3333 7.99996C15.3333 3.94987 12.0501 0.666626 8 0.666626ZM1.66666 7.99996C1.66666 4.50216 4.50219 1.66663 8 1.66663C11.4978 1.66663 14.3333 4.50216 14.3333 7.99996C14.3333 11.4978 11.4978 14.3333 8 14.3333C4.50219 14.3333 1.66666 11.4978 1.66666 7.99996Z" fill="#313333"/>
</svg>
