<svg width="16" height="16" viewBox="0 0 16 16" fill="none" xmlns="http://www.w3.org/2000/svg">
<path fill-rule="evenodd" clip-rule="evenodd" d="M7.99995 1.66663C5.97492 1.66663 4.33333 3.30826 4.33333 5.33329C4.33333 6.59293 4.96851 7.70423 5.93604 8.36434C3.693 9.18599 2.07728 11.3086 2.00258 13.8184C1.99437 14.0944 2.21147 14.3249 2.48749 14.3331C2.76351 14.3413 2.99393 14.1242 3.00214 13.8482C3.08223 11.1571 5.28923 8.99996 7.99988 8.99996C10.7105 8.99996 12.9175 11.1571 12.9976 13.8482C13.0058 14.1242 13.2363 14.3413 13.5123 14.3331C13.7883 14.3249 14.0054 14.0944 13.9972 13.8184C13.9225 11.3086 12.3068 9.18604 10.0638 8.36437C11.0314 7.70426 11.6666 6.59295 11.6666 5.33329C11.6666 3.30826 10.025 1.66663 7.99995 1.66663ZM5.33333 5.33329C5.33333 3.86053 6.52722 2.66663 7.99995 2.66663C9.47267 2.66663 10.6666 3.86053 10.6666 5.33329C10.6666 6.80606 9.47267 7.99996 7.99995 7.99996C6.52722 7.99996 5.33333 6.80606 5.33333 5.33329Z" fill="#313333"/>
</svg>
