<svg width="25" height="24" viewBox="0 0 25 24" fill="none" xmlns="http://www.w3.org/2000/svg">
<g clip-path="url(#clip0)">
<path fill-rule="evenodd" clip-rule="evenodd" d="M4.12305 4C3.98498 4 3.87305 4.11193 3.87305 4.25V16.75C3.87305 16.8881 3.98498 17 4.12305 17H6.62305C7.03726 17 7.37305 17.3358 7.37305 17.75V20.9393L11.0927 17.2197C11.2334 17.079 11.4241 17 11.623 17H21.623C21.7611 17 21.873 16.8881 21.873 16.75V4.25C21.873 4.11193 21.7611 4 21.623 4H4.12305ZM2.37305 4.25C2.37305 3.2835 3.15655 2.5 4.12305 2.5H21.623C22.5895 2.5 23.373 3.2835 23.373 4.25V16.75C23.373 17.7165 22.5895 18.5 21.623 18.5H11.9337L8.36048 22.0732C8.08722 22.3465 7.7166 22.5 7.33015 22.5C6.52542 22.5 5.87305 21.8476 5.87305 21.0429V18.5H4.12305C3.15655 18.5 2.37305 17.7165 2.37305 16.75V4.25Z" fill="#8AB446"/>
<circle cx="20.873" cy="4" r="4" fill="#8AB446"/>
</g>
<defs>
<clipPath id="clip0">
<rect width="24" height="24" fill="white" transform="translate(0.873047)"/>
</clipPath>
</defs>
</svg>
