<svg width="16" height="16" viewBox="0 0 16 16" fill="none" xmlns="http://www.w3.org/2000/svg">
<path fill-rule="evenodd" clip-rule="evenodd" d="M4 5.99996V4.83329C4 2.56315 5.66876 0.666626 8 0.666626C10.3312 0.666626 12 2.56315 12 4.83329V5.99996H12.3333C13.2538 5.99996 14 6.74615 14 7.66663V13C14 13.9204 13.2538 14.6666 12.3333 14.6666H3.66667C2.74619 14.6666 2 13.9204 2 13V7.66663C2 6.74615 2.74619 5.99996 3.66667 5.99996H4ZM5 4.83329C5 3.05335 6.28115 1.66663 8 1.66663C9.71885 1.66663 11 3.05335 11 4.83329V5.99996H5V4.83329ZM3 7.66663C3 7.29844 3.29848 6.99996 3.66667 6.99996H12.3333C12.7015 6.99996 13 7.29844 13 7.66663V13C13 13.3681 12.7015 13.6666 12.3333 13.6666H3.66667C3.29848 13.6666 3 13.3681 3 13V7.66663Z" fill="#313333"/>
</svg>
