<svg width="18" height="18" viewBox="0 0 18 18" fill="none" xmlns="http://www.w3.org/2000/svg">
<rect width="18" height="18" fill="white"/>
<path fill-rule="evenodd" clip-rule="evenodd" d="M9.00003 1.875C6.72188 1.875 4.87509 3.72183 4.87509 6C4.87509 7.4171 5.58966 8.6673 6.67814 9.40993C4.15472 10.3343 2.33704 12.7222 2.253 15.5458C2.24376 15.8563 2.48799 16.1155 2.79852 16.1248C3.10904 16.134 3.36826 15.8898 3.3775 15.5792C3.46761 12.5518 5.95048 10.125 8.99996 10.125C12.0494 10.125 14.5323 12.5518 14.6224 15.5792C14.6317 15.8898 14.8909 16.134 15.2014 16.1248C15.5119 16.1155 15.7562 15.8563 15.7469 15.5458C15.6629 12.7222 13.8452 10.3343 11.3219 9.40996C12.4104 8.66734 13.125 7.41712 13.125 6C13.125 3.72183 11.2782 1.875 9.00003 1.875ZM6.00009 6C6.00009 4.34314 7.34322 3 9.00003 3C10.6568 3 12 4.34314 12 6C12 7.65686 10.6568 9 9.00003 9C7.34322 9 6.00009 7.65686 6.00009 6Z" fill="#8AB446"/>
</svg>
