<svg width="16" height="16" viewBox="0 0 16 16" fill="none" xmlns="http://www.w3.org/2000/svg">
<path d="M7.31383 5.5098C7.16733 5.60747 7.06341 5.74127 6.98891 5.89029C6.86541 6.13728 6.56507 6.23739 6.31809 6.1139C6.0711 5.99041 5.97098 5.69007 6.09448 5.44308C6.2283 5.17543 6.43689 4.89257 6.75913 4.67774C7.08451 4.46083 7.49587 4.33335 8.00002 4.33335C8.43852 4.33335 8.91267 4.46315 9.28961 4.74585C9.6799 5.03857 9.95836 5.49329 9.95836 6.08335C9.95836 6.77226 9.61654 7.2298 9.27387 7.5603C9.14772 7.68198 9.00827 7.79845 8.88798 7.89892C8.85361 7.92762 8.82057 7.95522 8.7901 7.98105C8.66841 8.08421 8.57332 8.1707 8.50002 8.25336V9.16669C8.50002 9.44283 8.27617 9.66669 8.00002 9.66669C7.72388 9.66669 7.50002 9.44283 7.50002 9.16669V8.18435C7.50002 8.02691 7.54461 7.84841 7.66486 7.69425C7.8108 7.50715 7.98844 7.34967 8.14345 7.21826C8.18585 7.18231 8.22635 7.14846 8.26532 7.11588L8.26598 7.11533C8.38039 7.0197 8.48168 6.93503 8.57965 6.84054C8.82459 6.60429 8.95836 6.38983 8.95836 6.08335C8.95836 5.84008 8.85487 5.6698 8.68961 5.54585C8.51099 5.41189 8.25597 5.33335 8.00002 5.33335C7.67085 5.33335 7.45721 5.41421 7.31383 5.5098Z" fill="#313333"/>
<path d="M8.66666 11.3334C8.66666 11.7015 8.36819 12 8 12C7.63181 12 7.33333 11.7015 7.33333 11.3334C7.33333 10.9652 7.63181 10.6667 8 10.6667C8.36819 10.6667 8.66666 10.9652 8.66666 11.3334Z" fill="#313333"/>
<path fill-rule="evenodd" clip-rule="evenodd" d="M8 0.666687C3.94991 0.666687 0.666664 3.94993 0.666664 8.00002C0.666664 12.0501 3.94991 15.3334 8 15.3334C12.0501 15.3334 15.3333 12.0501 15.3333 8.00002C15.3333 3.94993 12.0501 0.666687 8 0.666687ZM1.66666 8.00002C1.66666 4.50222 4.50219 1.66669 8 1.66669C11.4978 1.66669 14.3333 4.50222 14.3333 8.00002C14.3333 11.4978 11.4978 14.3334 8 14.3334C4.50219 14.3334 1.66666 11.4978 1.66666 8.00002Z" fill="#313333"/>
</svg>
