<svg width="278" height="204" viewBox="0 0 278 204" fill="none" xmlns="http://www.w3.org/2000/svg">
<path d="M61.7969 198.488H59.4102V201H58.6602V195.312H62.1836V195.93H59.4102V197.875H61.7969V198.488ZM62.6914 198.848C62.6914 198.434 62.7721 198.061 62.9336 197.73C63.0977 197.4 63.3242 197.145 63.6133 196.965C63.9049 196.785 64.237 196.695 64.6094 196.695C65.1849 196.695 65.6497 196.895 66.0039 197.293C66.3607 197.691 66.5391 198.221 66.5391 198.883V198.934C66.5391 199.345 66.4596 199.715 66.3008 200.043C66.1445 200.368 65.9193 200.622 65.625 200.805C65.3333 200.987 64.9974 201.078 64.6172 201.078C64.0443 201.078 63.5794 200.879 63.2227 200.48C62.8685 200.082 62.6914 199.555 62.6914 198.898V198.848ZM63.418 198.934C63.418 199.402 63.526 199.779 63.7422 200.062C63.9609 200.346 64.2526 200.488 64.6172 200.488C64.9844 200.488 65.276 200.345 65.4922 200.059C65.7083 199.77 65.8164 199.366 65.8164 198.848C65.8164 198.384 65.7057 198.009 65.4844 197.723C65.2656 197.434 64.974 197.289 64.6094 197.289C64.2526 197.289 63.9648 197.431 63.7461 197.715C63.5273 197.999 63.418 198.405 63.418 198.934ZM69.4883 197.422C69.3789 197.404 69.2604 197.395 69.1328 197.395C68.6589 197.395 68.3372 197.596 68.168 198V201H67.4453V196.773H68.1484L68.1602 197.262C68.3971 196.884 68.7331 196.695 69.168 196.695C69.3086 196.695 69.4154 196.714 69.4883 196.75V197.422ZM72.7656 200.582C72.4844 200.913 72.0716 201.078 71.5273 201.078C71.0768 201.078 70.7331 200.948 70.4961 200.688C70.2617 200.424 70.1432 200.036 70.1406 199.523V196.773H70.8633V199.504C70.8633 200.145 71.1237 200.465 71.6445 200.465C72.1966 200.465 72.5638 200.259 72.7461 199.848V196.773H73.4688V201H72.7812L72.7656 200.582ZM75.25 196.773L75.2695 197.242C75.5794 196.878 75.9974 196.695 76.5234 196.695C77.1146 196.695 77.5169 196.922 77.7305 197.375C77.8711 197.172 78.0534 197.008 78.2773 196.883C78.5039 196.758 78.7708 196.695 79.0781 196.695C80.0052 196.695 80.4766 197.186 80.4922 198.168V201H79.7695V198.211C79.7695 197.909 79.7005 197.684 79.5625 197.535C79.4245 197.384 79.1927 197.309 78.8672 197.309C78.599 197.309 78.3763 197.389 78.1992 197.551C78.0221 197.71 77.9193 197.924 77.8906 198.195V201H77.1641V198.23C77.1641 197.616 76.8633 197.309 76.2617 197.309C75.7878 197.309 75.4635 197.51 75.2891 197.914V201H74.5664V196.773H75.25ZM85.8711 201H85.1445V196.184L83.6875 196.719V196.062L85.7578 195.285H85.8711V201ZM90.0195 198.691C90.0195 198.103 90.0977 197.538 90.2539 196.996C90.4128 196.454 90.6484 195.962 90.9609 195.52C91.2734 195.077 91.5977 194.764 91.9336 194.582L92.082 195.059C91.7018 195.35 91.3893 195.796 91.1445 196.395C90.9023 196.993 90.7695 197.664 90.7461 198.406L90.7422 198.738C90.7422 199.743 90.9258 200.616 91.293 201.355C91.5143 201.798 91.7773 202.145 92.082 202.395L91.9336 202.836C91.5872 202.643 91.2565 202.32 90.9414 201.867C90.3268 200.982 90.0195 199.923 90.0195 198.691ZM93.8633 195.312L95.7227 199.953L97.582 195.312H98.5547V201H97.8047V198.785L97.875 196.395L96.0078 201H95.4336L93.5703 196.406L93.6445 198.785V201H92.8945V195.312H93.8633ZM102.375 201C102.333 200.917 102.299 200.768 102.273 200.555C101.938 200.904 101.536 201.078 101.07 201.078C100.654 201.078 100.311 200.961 100.043 200.727C99.7773 200.49 99.6445 200.19 99.6445 199.828C99.6445 199.388 99.8112 199.047 100.145 198.805C100.48 198.56 100.952 198.438 101.559 198.438H102.262V198.105C102.262 197.853 102.186 197.652 102.035 197.504C101.884 197.353 101.661 197.277 101.367 197.277C101.109 197.277 100.893 197.342 100.719 197.473C100.544 197.603 100.457 197.76 100.457 197.945H99.7305C99.7305 197.734 99.8047 197.531 99.9531 197.336C100.104 197.138 100.307 196.982 100.562 196.867C100.82 196.753 101.103 196.695 101.41 196.695C101.897 196.695 102.279 196.818 102.555 197.062C102.831 197.305 102.974 197.639 102.984 198.066V200.012C102.984 200.4 103.034 200.708 103.133 200.938V201H102.375ZM101.176 200.449C101.402 200.449 101.617 200.391 101.82 200.273C102.023 200.156 102.171 200.004 102.262 199.816V198.949H101.695C100.81 198.949 100.367 199.208 100.367 199.727C100.367 199.953 100.443 200.13 100.594 200.258C100.745 200.385 100.939 200.449 101.176 200.449ZM105.098 195.75V196.773H105.887V197.332H105.098V199.953C105.098 200.122 105.133 200.25 105.203 200.336C105.273 200.419 105.393 200.461 105.562 200.461C105.646 200.461 105.76 200.445 105.906 200.414V201C105.716 201.052 105.531 201.078 105.352 201.078C105.029 201.078 104.785 200.98 104.621 200.785C104.457 200.59 104.375 200.312 104.375 199.953V197.332H103.605V196.773H104.375V195.75H105.098ZM108.488 201.078C107.915 201.078 107.449 200.891 107.09 200.516C106.73 200.138 106.551 199.634 106.551 199.004V198.871C106.551 198.452 106.63 198.078 106.789 197.75C106.951 197.419 107.174 197.161 107.461 196.977C107.75 196.789 108.062 196.695 108.398 196.695C108.948 196.695 109.375 196.876 109.68 197.238C109.984 197.6 110.137 198.118 110.137 198.793V199.094H107.273C107.284 199.51 107.405 199.848 107.637 200.105C107.871 200.361 108.168 200.488 108.527 200.488C108.783 200.488 108.999 200.436 109.176 200.332C109.353 200.228 109.508 200.09 109.641 199.918L110.082 200.262C109.728 200.806 109.197 201.078 108.488 201.078ZM108.398 197.289C108.107 197.289 107.862 197.396 107.664 197.609C107.466 197.82 107.344 198.117 107.297 198.5H109.414V198.445C109.393 198.078 109.294 197.794 109.117 197.594C108.94 197.391 108.701 197.289 108.398 197.289ZM113.02 197.422C112.91 197.404 112.792 197.395 112.664 197.395C112.19 197.395 111.868 197.596 111.699 198V201H110.977V196.773H111.68L111.691 197.262C111.928 196.884 112.264 196.695 112.699 196.695C112.84 196.695 112.947 196.714 113.02 196.75V197.422ZM114.473 201H113.75V196.773H114.473V201ZM113.691 195.652C113.691 195.535 113.727 195.436 113.797 195.355C113.87 195.275 113.977 195.234 114.117 195.234C114.258 195.234 114.365 195.275 114.438 195.355C114.51 195.436 114.547 195.535 114.547 195.652C114.547 195.77 114.51 195.867 114.438 195.945C114.365 196.023 114.258 196.062 114.117 196.062C113.977 196.062 113.87 196.023 113.797 195.945C113.727 195.867 113.691 195.77 113.691 195.652ZM117.301 198.73C117.301 199.311 117.224 199.868 117.07 200.402C116.919 200.934 116.686 201.424 116.371 201.875C116.059 202.326 115.73 202.646 115.387 202.836L115.234 202.395C115.635 202.087 115.957 201.611 116.199 200.965C116.444 200.316 116.569 199.598 116.574 198.809V198.684C116.574 198.137 116.517 197.629 116.402 197.16C116.288 196.689 116.128 196.267 115.922 195.895C115.719 195.522 115.49 195.232 115.234 195.023L115.387 194.582C115.73 194.772 116.057 195.09 116.367 195.535C116.68 195.98 116.913 196.471 117.066 197.008C117.223 197.544 117.301 198.118 117.301 198.73Z" fill="#313333"/>
<path d="M181.797 198.488H179.41V201H178.66V195.312H182.184V195.93H179.41V197.875H181.797V198.488ZM182.691 198.848C182.691 198.434 182.772 198.061 182.934 197.73C183.098 197.4 183.324 197.145 183.613 196.965C183.905 196.785 184.237 196.695 184.609 196.695C185.185 196.695 185.65 196.895 186.004 197.293C186.361 197.691 186.539 198.221 186.539 198.883V198.934C186.539 199.345 186.46 199.715 186.301 200.043C186.145 200.368 185.919 200.622 185.625 200.805C185.333 200.987 184.997 201.078 184.617 201.078C184.044 201.078 183.579 200.879 183.223 200.48C182.868 200.082 182.691 199.555 182.691 198.898V198.848ZM183.418 198.934C183.418 199.402 183.526 199.779 183.742 200.062C183.961 200.346 184.253 200.488 184.617 200.488C184.984 200.488 185.276 200.345 185.492 200.059C185.708 199.77 185.816 199.366 185.816 198.848C185.816 198.384 185.706 198.009 185.484 197.723C185.266 197.434 184.974 197.289 184.609 197.289C184.253 197.289 183.965 197.431 183.746 197.715C183.527 197.999 183.418 198.405 183.418 198.934ZM189.488 197.422C189.379 197.404 189.26 197.395 189.133 197.395C188.659 197.395 188.337 197.596 188.168 198V201H187.445V196.773H188.148L188.16 197.262C188.397 196.884 188.733 196.695 189.168 196.695C189.309 196.695 189.415 196.714 189.488 196.75V197.422ZM192.766 200.582C192.484 200.913 192.072 201.078 191.527 201.078C191.077 201.078 190.733 200.948 190.496 200.688C190.262 200.424 190.143 200.036 190.141 199.523V196.773H190.863V199.504C190.863 200.145 191.124 200.465 191.645 200.465C192.197 200.465 192.564 200.259 192.746 199.848V196.773H193.469V201H192.781L192.766 200.582ZM195.25 196.773L195.27 197.242C195.579 196.878 195.997 196.695 196.523 196.695C197.115 196.695 197.517 196.922 197.73 197.375C197.871 197.172 198.053 197.008 198.277 196.883C198.504 196.758 198.771 196.695 199.078 196.695C200.005 196.695 200.477 197.186 200.492 198.168V201H199.77V198.211C199.77 197.909 199.701 197.684 199.562 197.535C199.424 197.384 199.193 197.309 198.867 197.309C198.599 197.309 198.376 197.389 198.199 197.551C198.022 197.71 197.919 197.924 197.891 198.195V201H197.164V198.23C197.164 197.616 196.863 197.309 196.262 197.309C195.788 197.309 195.464 197.51 195.289 197.914V201H194.566V196.773H195.25ZM207.223 201H203.496V200.48L205.465 198.293C205.757 197.962 205.957 197.694 206.066 197.488C206.178 197.28 206.234 197.065 206.234 196.844C206.234 196.547 206.145 196.303 205.965 196.113C205.785 195.923 205.546 195.828 205.246 195.828C204.887 195.828 204.607 195.931 204.406 196.137C204.208 196.34 204.109 196.624 204.109 196.988H203.387C203.387 196.465 203.555 196.042 203.891 195.719C204.229 195.396 204.681 195.234 205.246 195.234C205.775 195.234 206.193 195.374 206.5 195.652C206.807 195.928 206.961 196.297 206.961 196.758C206.961 197.318 206.604 197.984 205.891 198.758L204.367 200.41H207.223V201ZM210.02 198.691C210.02 198.103 210.098 197.538 210.254 196.996C210.413 196.454 210.648 195.962 210.961 195.52C211.273 195.077 211.598 194.764 211.934 194.582L212.082 195.059C211.702 195.35 211.389 195.796 211.145 196.395C210.902 196.993 210.77 197.664 210.746 198.406L210.742 198.738C210.742 199.743 210.926 200.616 211.293 201.355C211.514 201.798 211.777 202.145 212.082 202.395L211.934 202.836C211.587 202.643 211.257 202.32 210.941 201.867C210.327 200.982 210.02 199.923 210.02 198.691ZM213.645 198.773V201H212.895V195.312H214.992C215.615 195.312 216.102 195.471 216.453 195.789C216.807 196.107 216.984 196.527 216.984 197.051C216.984 197.603 216.811 198.029 216.465 198.328C216.121 198.625 215.628 198.773 214.984 198.773H213.645ZM213.645 198.16H214.992C215.393 198.16 215.701 198.066 215.914 197.879C216.128 197.689 216.234 197.415 216.234 197.059C216.234 196.72 216.128 196.449 215.914 196.246C215.701 196.043 215.408 195.938 215.035 195.93H213.645V198.16ZM219.871 197.422C219.762 197.404 219.643 197.395 219.516 197.395C219.042 197.395 218.72 197.596 218.551 198V201H217.828V196.773H218.531L218.543 197.262C218.78 196.884 219.116 196.695 219.551 196.695C219.691 196.695 219.798 196.714 219.871 196.75V197.422ZM220.27 198.848C220.27 198.434 220.35 198.061 220.512 197.73C220.676 197.4 220.902 197.145 221.191 196.965C221.483 196.785 221.815 196.695 222.188 196.695C222.763 196.695 223.228 196.895 223.582 197.293C223.939 197.691 224.117 198.221 224.117 198.883V198.934C224.117 199.345 224.038 199.715 223.879 200.043C223.723 200.368 223.497 200.622 223.203 200.805C222.911 200.987 222.576 201.078 222.195 201.078C221.622 201.078 221.158 200.879 220.801 200.48C220.447 200.082 220.27 199.555 220.27 198.898V198.848ZM220.996 198.934C220.996 199.402 221.104 199.779 221.32 200.062C221.539 200.346 221.831 200.488 222.195 200.488C222.562 200.488 222.854 200.345 223.07 200.059C223.286 199.77 223.395 199.366 223.395 198.848C223.395 198.384 223.284 198.009 223.062 197.723C222.844 197.434 222.552 197.289 222.188 197.289C221.831 197.289 221.543 197.431 221.324 197.715C221.105 197.999 220.996 198.405 220.996 198.934ZM225.77 196.773V201.488C225.77 202.301 225.401 202.707 224.664 202.707C224.505 202.707 224.358 202.684 224.223 202.637V202.059C224.306 202.079 224.415 202.09 224.551 202.09C224.712 202.09 224.835 202.046 224.918 201.957C225.004 201.871 225.047 201.72 225.047 201.504V196.773H225.77ZM224.973 195.652C224.973 195.538 225.008 195.44 225.078 195.359C225.151 195.276 225.257 195.234 225.395 195.234C225.535 195.234 225.642 195.275 225.715 195.355C225.788 195.436 225.824 195.535 225.824 195.652C225.824 195.77 225.788 195.867 225.715 195.945C225.642 196.023 225.535 196.062 225.395 196.062C225.254 196.062 225.148 196.023 225.078 195.945C225.008 195.867 224.973 195.77 224.973 195.652ZM228.691 201.078C228.118 201.078 227.652 200.891 227.293 200.516C226.934 200.138 226.754 199.634 226.754 199.004V198.871C226.754 198.452 226.833 198.078 226.992 197.75C227.154 197.419 227.378 197.161 227.664 196.977C227.953 196.789 228.266 196.695 228.602 196.695C229.151 196.695 229.578 196.876 229.883 197.238C230.188 197.6 230.34 198.118 230.34 198.793V199.094H227.477C227.487 199.51 227.608 199.848 227.84 200.105C228.074 200.361 228.371 200.488 228.73 200.488C228.986 200.488 229.202 200.436 229.379 200.332C229.556 200.228 229.711 200.09 229.844 199.918L230.285 200.262C229.931 200.806 229.4 201.078 228.691 201.078ZM228.602 197.289C228.31 197.289 228.065 197.396 227.867 197.609C227.669 197.82 227.547 198.117 227.5 198.5H229.617V198.445C229.596 198.078 229.497 197.794 229.32 197.594C229.143 197.391 228.904 197.289 228.602 197.289ZM232.875 200.488C233.133 200.488 233.358 200.41 233.551 200.254C233.743 200.098 233.85 199.902 233.871 199.668H234.555C234.542 199.91 234.458 200.141 234.305 200.359C234.151 200.578 233.945 200.753 233.688 200.883C233.432 201.013 233.161 201.078 232.875 201.078C232.299 201.078 231.841 200.887 231.5 200.504C231.161 200.118 230.992 199.592 230.992 198.926V198.805C230.992 198.393 231.068 198.027 231.219 197.707C231.37 197.387 231.586 197.138 231.867 196.961C232.151 196.784 232.486 196.695 232.871 196.695C233.345 196.695 233.738 196.837 234.051 197.121C234.366 197.405 234.534 197.773 234.555 198.227H233.871C233.85 197.953 233.746 197.729 233.559 197.555C233.374 197.378 233.145 197.289 232.871 197.289C232.504 197.289 232.219 197.422 232.016 197.688C231.815 197.951 231.715 198.332 231.715 198.832V198.969C231.715 199.456 231.815 199.831 232.016 200.094C232.216 200.357 232.503 200.488 232.875 200.488ZM236.348 195.75V196.773H237.137V197.332H236.348V199.953C236.348 200.122 236.383 200.25 236.453 200.336C236.523 200.419 236.643 200.461 236.812 200.461C236.896 200.461 237.01 200.445 237.156 200.414V201C236.966 201.052 236.781 201.078 236.602 201.078C236.279 201.078 236.035 200.98 235.871 200.785C235.707 200.59 235.625 200.312 235.625 199.953V197.332H234.855V196.773H235.625V195.75H236.348ZM239.652 198.73C239.652 199.311 239.576 199.868 239.422 200.402C239.271 200.934 239.038 201.424 238.723 201.875C238.41 202.326 238.082 202.646 237.738 202.836L237.586 202.395C237.987 202.087 238.309 201.611 238.551 200.965C238.796 200.316 238.921 199.598 238.926 198.809V198.684C238.926 198.137 238.868 197.629 238.754 197.16C238.639 196.689 238.479 196.267 238.273 195.895C238.07 195.522 237.841 195.232 237.586 195.023L237.738 194.582C238.082 194.772 238.409 195.09 238.719 195.535C239.031 195.98 239.264 196.471 239.418 197.008C239.574 197.544 239.652 198.118 239.652 198.73Z" fill="#313333"/>
<line x1="31" y1="198" x2="51" y2="198" stroke="#8AB446" stroke-width="2"/>
<path d="M151.5 198H171.5" stroke="#2D6B22" stroke-width="2"/>
<path d="M220.107 152.095H217.295V155H215.83V147.891H220.459V149.077H217.295V150.913H220.107V152.095ZM222.705 155H221.289V149.717H222.705V155ZM221.206 148.35C221.206 148.138 221.276 147.964 221.416 147.827C221.559 147.69 221.753 147.622 221.997 147.622C222.238 147.622 222.43 147.69 222.573 147.827C222.716 147.964 222.788 148.138 222.788 148.35C222.788 148.564 222.715 148.74 222.568 148.877C222.425 149.014 222.235 149.082 221.997 149.082C221.759 149.082 221.567 149.014 221.421 148.877C221.278 148.74 221.206 148.564 221.206 148.35ZM225.171 149.717L225.215 150.327C225.592 149.855 226.099 149.619 226.733 149.619C227.293 149.619 227.71 149.784 227.983 150.112C228.257 150.441 228.397 150.933 228.403 151.587V155H226.992V151.621C226.992 151.322 226.927 151.105 226.797 150.972C226.667 150.835 226.45 150.767 226.147 150.767C225.75 150.767 225.452 150.936 225.254 151.274V155H223.843V149.717H225.171ZM232.539 155C232.474 154.873 232.427 154.715 232.397 154.526C232.056 154.907 231.611 155.098 231.064 155.098C230.547 155.098 230.117 154.948 229.775 154.648C229.437 154.349 229.268 153.971 229.268 153.516C229.268 152.956 229.474 152.526 229.888 152.227C230.304 151.927 230.905 151.776 231.689 151.772H232.339V151.47C232.339 151.226 232.275 151.03 232.148 150.884C232.025 150.737 231.828 150.664 231.558 150.664C231.32 150.664 231.133 150.721 230.996 150.835C230.863 150.949 230.796 151.105 230.796 151.304H229.385C229.385 150.998 229.479 150.715 229.668 150.454C229.857 150.194 230.124 149.99 230.469 149.844C230.814 149.694 231.201 149.619 231.631 149.619C232.282 149.619 232.798 149.784 233.179 150.112C233.563 150.438 233.755 150.897 233.755 151.489V153.779C233.758 154.281 233.828 154.66 233.965 154.917V155H232.539ZM231.372 154.019C231.58 154.019 231.772 153.973 231.948 153.882C232.124 153.787 232.254 153.662 232.339 153.506V152.598H231.812C231.105 152.598 230.729 152.842 230.684 153.33L230.679 153.413C230.679 153.589 230.741 153.734 230.864 153.848C230.988 153.962 231.157 154.019 231.372 154.019ZM236.328 155H234.912V147.5H236.328V155ZM242.71 152.397H241.543V155H240.078V147.891H242.72C243.56 147.891 244.207 148.078 244.663 148.452C245.119 148.826 245.347 149.355 245.347 150.039C245.347 150.524 245.241 150.929 245.029 151.255C244.821 151.577 244.504 151.834 244.077 152.026L245.615 154.932V155H244.043L242.71 152.397ZM241.543 151.211H242.725C243.092 151.211 243.377 151.118 243.579 150.933C243.781 150.744 243.882 150.485 243.882 150.156C243.882 149.821 243.786 149.557 243.594 149.365C243.405 149.173 243.114 149.077 242.72 149.077H241.543V151.211ZM248.804 155.098C248.029 155.098 247.397 154.86 246.909 154.385C246.424 153.91 246.182 153.276 246.182 152.485V152.349C246.182 151.818 246.284 151.344 246.489 150.928C246.694 150.508 246.984 150.186 247.358 149.961C247.736 149.733 248.166 149.619 248.647 149.619C249.37 149.619 249.938 149.847 250.352 150.303C250.768 150.758 250.977 151.405 250.977 152.241V152.817H247.612C247.658 153.162 247.795 153.439 248.022 153.647C248.254 153.856 248.545 153.96 248.896 153.96C249.44 153.96 249.865 153.763 250.171 153.369L250.864 154.146C250.653 154.445 250.366 154.679 250.005 154.849C249.644 155.015 249.243 155.098 248.804 155.098ZM248.643 150.762C248.363 150.762 248.135 150.856 247.959 151.045C247.786 151.234 247.676 151.504 247.627 151.855H249.59V151.743C249.583 151.431 249.499 151.19 249.336 151.021C249.173 150.848 248.942 150.762 248.643 150.762ZM256.538 152.407C256.538 153.221 256.353 153.874 255.981 154.365C255.614 154.854 255.116 155.098 254.487 155.098C253.953 155.098 253.522 154.912 253.193 154.541V157.031H251.782V149.717H253.091L253.14 150.234C253.481 149.824 253.927 149.619 254.478 149.619C255.129 149.619 255.635 149.86 255.996 150.342C256.357 150.824 256.538 151.488 256.538 152.334V152.407ZM255.127 152.305C255.127 151.813 255.039 151.434 254.863 151.167C254.691 150.9 254.438 150.767 254.106 150.767C253.664 150.767 253.359 150.936 253.193 151.274V153.438C253.366 153.786 253.674 153.96 254.116 153.96C254.79 153.96 255.127 153.408 255.127 152.305ZM257.197 152.31C257.197 151.785 257.298 151.318 257.5 150.908C257.702 150.498 257.992 150.181 258.369 149.956C258.75 149.731 259.191 149.619 259.692 149.619C260.405 149.619 260.986 149.837 261.436 150.273C261.888 150.71 262.14 151.302 262.192 152.051L262.202 152.412C262.202 153.223 261.976 153.874 261.523 154.365C261.071 154.854 260.464 155.098 259.702 155.098C258.94 155.098 258.332 154.854 257.876 154.365C257.424 153.877 257.197 153.213 257.197 152.373V152.31ZM258.608 152.412C258.608 152.913 258.703 153.298 258.892 153.564C259.08 153.828 259.351 153.96 259.702 153.96C260.044 153.96 260.311 153.83 260.503 153.569C260.695 153.306 260.791 152.886 260.791 152.31C260.791 151.818 260.695 151.437 260.503 151.167C260.311 150.897 260.041 150.762 259.692 150.762C259.347 150.762 259.08 150.897 258.892 151.167C258.703 151.434 258.608 151.849 258.608 152.412ZM266.04 151.04C265.848 151.014 265.679 151.001 265.532 151.001C264.998 151.001 264.648 151.182 264.482 151.543V155H263.071V149.717H264.404L264.443 150.347C264.727 149.862 265.119 149.619 265.62 149.619C265.776 149.619 265.923 149.64 266.06 149.683L266.04 151.04ZM268.657 148.418V149.717H269.561V150.752H268.657V153.389C268.657 153.584 268.695 153.724 268.77 153.809C268.844 153.893 268.988 153.936 269.199 153.936C269.355 153.936 269.494 153.924 269.614 153.901V154.971C269.338 155.055 269.053 155.098 268.76 155.098C267.77 155.098 267.266 154.598 267.246 153.599V150.752H266.475V149.717H267.246V148.418H268.657Z" fill="#2D6B22"/>
<path d="M213.883 164H213.156V159.184L211.699 159.719V159.062L213.77 158.285H213.883V164ZM217.051 160.805H217.594C217.935 160.799 218.203 160.71 218.398 160.535C218.594 160.361 218.691 160.125 218.691 159.828C218.691 159.161 218.359 158.828 217.695 158.828C217.383 158.828 217.133 158.918 216.945 159.098C216.76 159.275 216.668 159.51 216.668 159.805H215.945C215.945 159.354 216.109 158.98 216.438 158.684C216.768 158.384 217.188 158.234 217.695 158.234C218.232 158.234 218.652 158.376 218.957 158.66C219.262 158.944 219.414 159.339 219.414 159.844C219.414 160.091 219.333 160.331 219.172 160.562C219.013 160.794 218.796 160.967 218.52 161.082C218.832 161.181 219.073 161.345 219.242 161.574C219.414 161.803 219.5 162.083 219.5 162.414C219.5 162.924 219.333 163.329 219 163.629C218.667 163.928 218.233 164.078 217.699 164.078C217.165 164.078 216.73 163.934 216.395 163.645C216.061 163.355 215.895 162.974 215.895 162.5H216.621C216.621 162.799 216.719 163.039 216.914 163.219C217.109 163.398 217.371 163.488 217.699 163.488C218.048 163.488 218.315 163.397 218.5 163.215C218.685 163.033 218.777 162.771 218.777 162.43C218.777 162.099 218.676 161.845 218.473 161.668C218.27 161.491 217.977 161.4 217.594 161.395H217.051V160.805ZM222.398 162.473C222.398 162.199 222.474 161.948 222.625 161.719C222.779 161.49 223.07 161.223 223.5 160.918C223.247 160.611 223.078 160.363 222.992 160.176C222.906 159.988 222.863 159.802 222.863 159.617C222.863 159.185 222.991 158.846 223.246 158.602C223.501 158.357 223.848 158.234 224.285 158.234C224.676 158.234 224.999 158.349 225.254 158.578C225.509 158.805 225.637 159.091 225.637 159.438C225.637 159.667 225.578 159.879 225.461 160.074C225.346 160.267 225.145 160.47 224.855 160.684L224.438 160.992L225.703 162.504C225.88 162.165 225.969 161.789 225.969 161.375H226.621C226.621 162.039 226.461 162.59 226.141 163.027L226.953 164H226.086L225.707 163.551C225.514 163.723 225.288 163.854 225.027 163.945C224.77 164.034 224.507 164.078 224.238 164.078C223.684 164.078 223.238 163.931 222.902 163.637C222.566 163.342 222.398 162.954 222.398 162.473ZM224.238 163.488C224.621 163.488 224.971 163.342 225.289 163.051L223.902 161.391L223.773 161.484C223.339 161.805 223.121 162.134 223.121 162.473C223.121 162.78 223.22 163.026 223.418 163.211C223.618 163.396 223.892 163.488 224.238 163.488ZM223.586 159.594C223.586 159.844 223.74 160.156 224.047 160.531L224.508 160.207C224.685 160.082 224.806 159.964 224.871 159.852C224.936 159.737 224.969 159.599 224.969 159.438C224.969 159.263 224.904 159.118 224.773 159.004C224.643 158.887 224.479 158.828 224.281 158.828C224.068 158.828 223.898 158.901 223.773 159.047C223.648 159.19 223.586 159.372 223.586 159.594ZM233.164 164H229.438V163.48L231.406 161.293C231.698 160.962 231.898 160.694 232.008 160.488C232.12 160.28 232.176 160.065 232.176 159.844C232.176 159.547 232.086 159.303 231.906 159.113C231.727 158.923 231.487 158.828 231.188 158.828C230.828 158.828 230.548 158.931 230.348 159.137C230.15 159.34 230.051 159.624 230.051 159.988H229.328C229.328 159.465 229.496 159.042 229.832 158.719C230.171 158.396 230.622 158.234 231.188 158.234C231.716 158.234 232.134 158.374 232.441 158.652C232.749 158.928 232.902 159.297 232.902 159.758C232.902 160.318 232.546 160.984 231.832 161.758L230.309 163.41H233.164V164ZM237.496 161.574C237.496 162.421 237.352 163.049 237.062 163.461C236.773 163.872 236.322 164.078 235.707 164.078C235.1 164.078 234.651 163.878 234.359 163.477C234.068 163.073 233.917 162.471 233.906 161.672V160.707C233.906 159.871 234.051 159.25 234.34 158.844C234.629 158.438 235.082 158.234 235.699 158.234C236.311 158.234 236.762 158.431 237.051 158.824C237.34 159.215 237.488 159.819 237.496 160.637V161.574ZM236.773 160.586C236.773 159.974 236.688 159.529 236.516 159.25C236.344 158.969 236.072 158.828 235.699 158.828C235.329 158.828 235.06 158.967 234.891 159.246C234.721 159.525 234.634 159.953 234.629 160.531V161.688C234.629 162.302 234.717 162.757 234.895 163.051C235.074 163.342 235.345 163.488 235.707 163.488C236.064 163.488 236.328 163.35 236.5 163.074C236.674 162.798 236.766 162.363 236.773 161.77V160.586ZM244.965 164H244.211L241.348 159.617V164H240.594V158.312H241.348L244.219 162.715V158.312H244.965V164ZM245.992 161.848C245.992 161.434 246.073 161.061 246.234 160.73C246.398 160.4 246.625 160.145 246.914 159.965C247.206 159.785 247.538 159.695 247.91 159.695C248.486 159.695 248.951 159.895 249.305 160.293C249.661 160.691 249.84 161.221 249.84 161.883V161.934C249.84 162.345 249.76 162.715 249.602 163.043C249.445 163.368 249.22 163.622 248.926 163.805C248.634 163.987 248.298 164.078 247.918 164.078C247.345 164.078 246.88 163.879 246.523 163.48C246.169 163.082 245.992 162.555 245.992 161.898V161.848ZM246.719 161.934C246.719 162.402 246.827 162.779 247.043 163.062C247.262 163.346 247.553 163.488 247.918 163.488C248.285 163.488 248.577 163.345 248.793 163.059C249.009 162.77 249.117 162.366 249.117 161.848C249.117 161.384 249.007 161.009 248.785 160.723C248.566 160.434 248.275 160.289 247.91 160.289C247.553 160.289 247.266 160.431 247.047 160.715C246.828 160.999 246.719 161.405 246.719 161.934ZM252.078 163.02L253.125 159.773H253.863L252.348 164H251.797L250.266 159.773H251.004L252.078 163.02ZM260.195 164H256.469V163.48L258.438 161.293C258.729 160.962 258.93 160.694 259.039 160.488C259.151 160.28 259.207 160.065 259.207 159.844C259.207 159.547 259.117 159.303 258.938 159.113C258.758 158.923 258.518 158.828 258.219 158.828C257.859 158.828 257.579 158.931 257.379 159.137C257.181 159.34 257.082 159.624 257.082 159.988H256.359C256.359 159.465 256.527 159.042 256.863 158.719C257.202 158.396 257.654 158.234 258.219 158.234C258.747 158.234 259.165 158.374 259.473 158.652C259.78 158.928 259.934 159.297 259.934 159.758C259.934 160.318 259.577 160.984 258.863 161.758L257.34 163.41H260.195V164ZM264.527 161.574C264.527 162.421 264.383 163.049 264.094 163.461C263.805 163.872 263.353 164.078 262.738 164.078C262.132 164.078 261.682 163.878 261.391 163.477C261.099 163.073 260.948 162.471 260.938 161.672V160.707C260.938 159.871 261.082 159.25 261.371 158.844C261.66 158.438 262.113 158.234 262.73 158.234C263.342 158.234 263.793 158.431 264.082 158.824C264.371 159.215 264.52 159.819 264.527 160.637V161.574ZM263.805 160.586C263.805 159.974 263.719 159.529 263.547 159.25C263.375 158.969 263.103 158.828 262.73 158.828C262.361 158.828 262.091 158.967 261.922 159.246C261.753 159.525 261.665 159.953 261.66 160.531V161.688C261.66 162.302 261.749 162.757 261.926 163.051C262.105 163.342 262.376 163.488 262.738 163.488C263.095 163.488 263.359 163.35 263.531 163.074C263.706 162.798 263.797 162.363 263.805 161.77V160.586ZM269.18 164H265.453V163.48L267.422 161.293C267.714 160.962 267.914 160.694 268.023 160.488C268.135 160.28 268.191 160.065 268.191 159.844C268.191 159.547 268.102 159.303 267.922 159.113C267.742 158.923 267.503 158.828 267.203 158.828C266.844 158.828 266.564 158.931 266.363 159.137C266.165 159.34 266.066 159.624 266.066 159.988H265.344C265.344 159.465 265.512 159.042 265.848 158.719C266.186 158.396 266.638 158.234 267.203 158.234C267.732 158.234 268.15 158.374 268.457 158.652C268.764 158.928 268.918 159.297 268.918 159.758C268.918 160.318 268.561 160.984 267.848 161.758L266.324 163.41H269.18V164ZM272.32 164H271.594V159.184L270.137 159.719V159.062L272.207 158.285H272.32V164Z" fill="#515252"/>
<path d="M117.366 153.135C117.366 152.858 117.269 152.646 117.073 152.5C116.878 152.35 116.526 152.194 116.019 152.031C115.511 151.865 115.109 151.702 114.812 151.543C114.005 151.107 113.602 150.519 113.602 149.78C113.602 149.396 113.709 149.054 113.924 148.755C114.142 148.452 114.453 148.216 114.856 148.047C115.263 147.878 115.719 147.793 116.224 147.793C116.731 147.793 117.184 147.886 117.581 148.071C117.978 148.254 118.286 148.512 118.504 148.848C118.725 149.183 118.836 149.564 118.836 149.99H117.371C117.371 149.665 117.269 149.412 117.063 149.233C116.858 149.051 116.57 148.96 116.199 148.96C115.841 148.96 115.563 149.036 115.364 149.189C115.166 149.339 115.066 149.538 115.066 149.785C115.066 150.016 115.182 150.21 115.413 150.366C115.647 150.522 115.991 150.669 116.443 150.806C117.277 151.056 117.884 151.367 118.265 151.738C118.646 152.109 118.836 152.572 118.836 153.125C118.836 153.74 118.603 154.224 118.138 154.575C117.672 154.924 117.046 155.098 116.258 155.098C115.711 155.098 115.213 154.998 114.764 154.8C114.314 154.598 113.971 154.323 113.733 153.975C113.499 153.626 113.382 153.223 113.382 152.764H114.852C114.852 153.548 115.32 153.94 116.258 153.94C116.606 153.94 116.878 153.87 117.073 153.73C117.269 153.587 117.366 153.389 117.366 153.135ZM122.903 154.463C122.555 154.886 122.073 155.098 121.458 155.098C120.892 155.098 120.459 154.935 120.159 154.609C119.863 154.284 119.712 153.807 119.705 153.179V149.717H121.116V153.13C121.116 153.68 121.367 153.955 121.868 153.955C122.347 153.955 122.675 153.789 122.854 153.457V149.717H124.271V155H122.942L122.903 154.463ZM130.096 152.407C130.096 153.254 129.915 153.914 129.554 154.39C129.192 154.862 128.688 155.098 128.04 155.098C127.467 155.098 127.01 154.878 126.668 154.438L126.604 155H125.335V147.5H126.746V150.19C127.072 149.81 127.5 149.619 128.03 149.619C128.675 149.619 129.179 149.857 129.544 150.332C129.912 150.804 130.096 151.47 130.096 152.329V152.407ZM128.685 152.305C128.685 151.771 128.6 151.382 128.431 151.138C128.261 150.89 128.009 150.767 127.674 150.767C127.225 150.767 126.915 150.951 126.746 151.318V153.403C126.919 153.774 127.231 153.96 127.684 153.96C128.139 153.96 128.439 153.735 128.582 153.286C128.65 153.071 128.685 152.744 128.685 152.305ZM132.293 149.717L132.337 150.308C132.711 149.849 133.217 149.619 133.855 149.619C134.536 149.619 135.003 149.888 135.257 150.425C135.628 149.888 136.157 149.619 136.844 149.619C137.417 149.619 137.843 149.787 138.123 150.122C138.403 150.454 138.543 150.955 138.543 151.626V155H137.127V151.631C137.127 151.331 137.068 151.113 136.951 150.977C136.834 150.837 136.627 150.767 136.331 150.767C135.908 150.767 135.615 150.968 135.452 151.372L135.457 155H134.046V151.636C134.046 151.33 133.986 151.108 133.865 150.972C133.745 150.835 133.54 150.767 133.25 150.767C132.85 150.767 132.56 150.933 132.381 151.265V155H130.97V149.717H132.293ZM141.121 155H139.705V149.717H141.121V155ZM139.622 148.35C139.622 148.138 139.692 147.964 139.832 147.827C139.975 147.69 140.169 147.622 140.413 147.622C140.654 147.622 140.846 147.69 140.989 147.827C141.132 147.964 141.204 148.138 141.204 148.35C141.204 148.564 141.131 148.74 140.984 148.877C140.841 149.014 140.651 149.082 140.413 149.082C140.175 149.082 139.983 149.014 139.837 148.877C139.694 148.74 139.622 148.564 139.622 148.35ZM145.149 153.54C145.149 153.368 145.063 153.232 144.891 153.135C144.721 153.034 144.448 152.944 144.07 152.866C142.814 152.603 142.186 152.069 142.186 151.265C142.186 150.796 142.379 150.405 142.767 150.093C143.157 149.777 143.667 149.619 144.295 149.619C144.965 149.619 145.501 149.777 145.901 150.093C146.305 150.409 146.507 150.819 146.507 151.323H145.096C145.096 151.121 145.031 150.955 144.9 150.825C144.77 150.692 144.567 150.625 144.29 150.625C144.052 150.625 143.868 150.679 143.738 150.786C143.608 150.894 143.543 151.03 143.543 151.196C143.543 151.353 143.616 151.479 143.763 151.577C143.912 151.672 144.163 151.755 144.515 151.826C144.866 151.895 145.162 151.973 145.403 152.061C146.149 152.334 146.521 152.808 146.521 153.481C146.521 153.963 146.315 154.354 145.901 154.653C145.488 154.95 144.954 155.098 144.3 155.098C143.857 155.098 143.463 155.02 143.118 154.863C142.776 154.704 142.508 154.487 142.312 154.214C142.117 153.937 142.02 153.639 142.02 153.32H143.357C143.37 153.571 143.463 153.763 143.636 153.896C143.808 154.03 144.039 154.097 144.329 154.097C144.599 154.097 144.803 154.046 144.939 153.945C145.079 153.841 145.149 153.706 145.149 153.54ZM150.296 153.54C150.296 153.368 150.21 153.232 150.037 153.135C149.868 153.034 149.594 152.944 149.217 152.866C147.96 152.603 147.332 152.069 147.332 151.265C147.332 150.796 147.526 150.405 147.913 150.093C148.304 149.777 148.813 149.619 149.441 149.619C150.112 149.619 150.647 149.777 151.048 150.093C151.451 150.409 151.653 150.819 151.653 151.323H150.242C150.242 151.121 150.177 150.955 150.047 150.825C149.917 150.692 149.713 150.625 149.437 150.625C149.199 150.625 149.015 150.679 148.885 150.786C148.755 150.894 148.689 151.03 148.689 151.196C148.689 151.353 148.763 151.479 148.909 151.577C149.059 151.672 149.31 151.755 149.661 151.826C150.013 151.895 150.309 151.973 150.55 152.061C151.295 152.334 151.668 152.808 151.668 153.481C151.668 153.963 151.461 154.354 151.048 154.653C150.634 154.95 150.101 155.098 149.446 155.098C149.004 155.098 148.61 155.02 148.265 154.863C147.923 154.704 147.654 154.487 147.459 154.214C147.264 153.937 147.166 153.639 147.166 153.32H148.504C148.517 153.571 148.61 153.763 148.782 153.896C148.955 154.03 149.186 154.097 149.476 154.097C149.746 154.097 149.949 154.046 150.086 153.945C150.226 153.841 150.296 153.706 150.296 153.54ZM154.07 155H152.654V149.717H154.07V155ZM152.571 148.35C152.571 148.138 152.641 147.964 152.781 147.827C152.924 147.69 153.118 147.622 153.362 147.622C153.603 147.622 153.795 147.69 153.938 147.827C154.082 147.964 154.153 148.138 154.153 148.35C154.153 148.564 154.08 148.74 153.934 148.877C153.79 149.014 153.6 149.082 153.362 149.082C153.125 149.082 152.933 149.014 152.786 148.877C152.643 148.74 152.571 148.564 152.571 148.35ZM155.018 152.31C155.018 151.785 155.118 151.318 155.32 150.908C155.522 150.498 155.812 150.181 156.189 149.956C156.57 149.731 157.011 149.619 157.513 149.619C158.226 149.619 158.807 149.837 159.256 150.273C159.708 150.71 159.961 151.302 160.013 152.051L160.022 152.412C160.022 153.223 159.796 153.874 159.344 154.365C158.891 154.854 158.284 155.098 157.522 155.098C156.761 155.098 156.152 154.854 155.696 154.365C155.244 153.877 155.018 153.213 155.018 152.373V152.31ZM156.429 152.412C156.429 152.913 156.523 153.298 156.712 153.564C156.901 153.828 157.171 153.96 157.522 153.96C157.864 153.96 158.131 153.83 158.323 153.569C158.515 153.306 158.611 152.886 158.611 152.31C158.611 151.818 158.515 151.437 158.323 151.167C158.131 150.897 157.861 150.762 157.513 150.762C157.168 150.762 156.901 150.897 156.712 151.167C156.523 151.434 156.429 151.849 156.429 152.412ZM162.19 149.717L162.234 150.327C162.612 149.855 163.118 149.619 163.753 149.619C164.313 149.619 164.729 149.784 165.003 150.112C165.276 150.441 165.416 150.933 165.423 151.587V155H164.012V151.621C164.012 151.322 163.947 151.105 163.816 150.972C163.686 150.835 163.47 150.767 163.167 150.767C162.77 150.767 162.472 150.936 162.273 151.274V155H160.862V149.717H162.19Z" fill="#2D6B22"/>
<path d="M110.289 162.09H111.078V162.68H110.289V164H109.562V162.68H106.973V162.254L109.52 158.312H110.289V162.09ZM107.793 162.09H109.562V159.301L109.477 159.457L107.793 162.09ZM118.277 161.34C118.277 161.897 118.184 162.384 117.996 162.801C117.809 163.215 117.543 163.531 117.199 163.75C116.855 163.969 116.454 164.078 115.996 164.078C115.548 164.078 115.151 163.969 114.805 163.75C114.458 163.529 114.189 163.215 113.996 162.809C113.806 162.4 113.708 161.927 113.703 161.391V160.98C113.703 160.434 113.798 159.951 113.988 159.531C114.178 159.112 114.447 158.792 114.793 158.57C115.142 158.346 115.54 158.234 115.988 158.234C116.444 158.234 116.845 158.345 117.191 158.566C117.54 158.785 117.809 159.104 117.996 159.523C118.184 159.94 118.277 160.426 118.277 160.98V161.34ZM117.531 160.973C117.531 160.298 117.396 159.781 117.125 159.422C116.854 159.06 116.475 158.879 115.988 158.879C115.514 158.879 115.141 159.06 114.867 159.422C114.596 159.781 114.457 160.281 114.449 160.922V161.34C114.449 161.993 114.586 162.508 114.859 162.883C115.135 163.255 115.514 163.441 115.996 163.441C116.48 163.441 116.855 163.266 117.121 162.914C117.387 162.56 117.523 162.053 117.531 161.395V160.973ZM120.984 163.488C121.242 163.488 121.467 163.41 121.66 163.254C121.853 163.098 121.96 162.902 121.98 162.668H122.664C122.651 162.91 122.568 163.141 122.414 163.359C122.26 163.578 122.055 163.753 121.797 163.883C121.542 164.013 121.271 164.078 120.984 164.078C120.409 164.078 119.951 163.887 119.609 163.504C119.271 163.118 119.102 162.592 119.102 161.926V161.805C119.102 161.393 119.177 161.027 119.328 160.707C119.479 160.387 119.695 160.138 119.977 159.961C120.26 159.784 120.595 159.695 120.98 159.695C121.454 159.695 121.848 159.837 122.16 160.121C122.475 160.405 122.643 160.773 122.664 161.227H121.98C121.96 160.953 121.855 160.729 121.668 160.555C121.483 160.378 121.254 160.289 120.98 160.289C120.613 160.289 120.328 160.422 120.125 160.688C119.924 160.951 119.824 161.332 119.824 161.832V161.969C119.824 162.456 119.924 162.831 120.125 163.094C120.326 163.357 120.612 163.488 120.984 163.488ZM124.457 158.75V159.773H125.246V160.332H124.457V162.953C124.457 163.122 124.492 163.25 124.562 163.336C124.633 163.419 124.753 163.461 124.922 163.461C125.005 163.461 125.12 163.445 125.266 163.414V164C125.076 164.052 124.891 164.078 124.711 164.078C124.388 164.078 124.145 163.98 123.98 163.785C123.816 163.59 123.734 163.312 123.734 162.953V160.332H122.965V159.773H123.734V158.75H124.457ZM129.582 161.879H127.676V161.289H129.582V161.879ZM135.871 158.719L133.516 164H132.758L135.105 158.906H132.027V158.312H135.871V158.719ZM143.234 164H142.48L139.617 159.617V164H138.863V158.312H139.617L142.488 162.715V158.312H143.234V164ZM144.262 161.848C144.262 161.434 144.342 161.061 144.504 160.73C144.668 160.4 144.895 160.145 145.184 159.965C145.475 159.785 145.807 159.695 146.18 159.695C146.755 159.695 147.22 159.895 147.574 160.293C147.931 160.691 148.109 161.221 148.109 161.883V161.934C148.109 162.345 148.03 162.715 147.871 163.043C147.715 163.368 147.49 163.622 147.195 163.805C146.904 163.987 146.568 164.078 146.188 164.078C145.615 164.078 145.15 163.879 144.793 163.48C144.439 163.082 144.262 162.555 144.262 161.898V161.848ZM144.988 161.934C144.988 162.402 145.096 162.779 145.312 163.062C145.531 163.346 145.823 163.488 146.188 163.488C146.555 163.488 146.846 163.345 147.062 163.059C147.279 162.77 147.387 162.366 147.387 161.848C147.387 161.384 147.276 161.009 147.055 160.723C146.836 160.434 146.544 160.289 146.18 160.289C145.823 160.289 145.535 160.431 145.316 160.715C145.098 160.999 144.988 161.405 144.988 161.934ZM150.348 163.02L151.395 159.773H152.133L150.617 164H150.066L148.535 159.773H149.273L150.348 163.02ZM158.465 164H154.738V163.48L156.707 161.293C156.999 160.962 157.199 160.694 157.309 160.488C157.421 160.28 157.477 160.065 157.477 159.844C157.477 159.547 157.387 159.303 157.207 159.113C157.027 158.923 156.788 158.828 156.488 158.828C156.129 158.828 155.849 158.931 155.648 159.137C155.451 159.34 155.352 159.624 155.352 159.988H154.629C154.629 159.465 154.797 159.042 155.133 158.719C155.471 158.396 155.923 158.234 156.488 158.234C157.017 158.234 157.435 158.374 157.742 158.652C158.049 158.928 158.203 159.297 158.203 159.758C158.203 160.318 157.846 160.984 157.133 161.758L155.609 163.41H158.465V164ZM162.797 161.574C162.797 162.421 162.652 163.049 162.363 163.461C162.074 163.872 161.622 164.078 161.008 164.078C160.401 164.078 159.952 163.878 159.66 163.477C159.368 163.073 159.217 162.471 159.207 161.672V160.707C159.207 159.871 159.352 159.25 159.641 158.844C159.93 158.438 160.383 158.234 161 158.234C161.612 158.234 162.062 158.431 162.352 158.824C162.641 159.215 162.789 159.819 162.797 160.637V161.574ZM162.074 160.586C162.074 159.974 161.988 159.529 161.816 159.25C161.645 158.969 161.372 158.828 161 158.828C160.63 158.828 160.361 158.967 160.191 159.246C160.022 159.525 159.935 159.953 159.93 160.531V161.688C159.93 162.302 160.018 162.757 160.195 163.051C160.375 163.342 160.646 163.488 161.008 163.488C161.365 163.488 161.629 163.35 161.801 163.074C161.975 162.798 162.066 162.363 162.074 161.77V160.586ZM167.449 164H163.723V163.48L165.691 161.293C165.983 160.962 166.184 160.694 166.293 160.488C166.405 160.28 166.461 160.065 166.461 159.844C166.461 159.547 166.371 159.303 166.191 159.113C166.012 158.923 165.772 158.828 165.473 158.828C165.113 158.828 164.833 158.931 164.633 159.137C164.435 159.34 164.336 159.624 164.336 159.988H163.613C163.613 159.465 163.781 159.042 164.117 158.719C164.456 158.396 164.908 158.234 165.473 158.234C166.001 158.234 166.419 158.374 166.727 158.652C167.034 158.928 167.188 159.297 167.188 159.758C167.188 160.318 166.831 160.984 166.117 161.758L164.594 163.41H167.449V164ZM170.59 164H169.863V159.184L168.406 159.719V159.062L170.477 158.285H170.59V164Z" fill="#515252"/>
<path d="M8.63965 152.495V155H7.1748V147.891H9.94824C10.4821 147.891 10.9508 147.988 11.3545 148.184C11.7614 148.379 12.0739 148.657 12.292 149.019C12.5101 149.377 12.6191 149.785 12.6191 150.244C12.6191 150.941 12.3799 151.491 11.9014 151.895C11.4261 152.295 10.7669 152.495 9.92383 152.495H8.63965ZM8.63965 151.309H9.94824C10.3356 151.309 10.6302 151.217 10.832 151.035C11.0371 150.853 11.1396 150.592 11.1396 150.254C11.1396 149.906 11.0371 149.624 10.832 149.409C10.627 149.194 10.3438 149.084 9.98242 149.077H8.63965V151.309ZM16.5059 151.04C16.3138 151.014 16.1445 151.001 15.998 151.001C15.4642 151.001 15.1143 151.182 14.9482 151.543V155H13.5371V149.717H14.8701L14.9092 150.347C15.1924 149.862 15.5846 149.619 16.0859 149.619C16.2422 149.619 16.3887 149.64 16.5254 149.683L16.5059 151.04ZM16.7939 152.31C16.7939 151.785 16.8949 151.318 17.0967 150.908C17.2985 150.498 17.5882 150.181 17.9658 149.956C18.3467 149.731 18.7878 149.619 19.2891 149.619C20.002 149.619 20.583 149.837 21.0322 150.273C21.4847 150.71 21.737 151.302 21.7891 152.051L21.7988 152.412C21.7988 153.223 21.5726 153.874 21.1201 154.365C20.6676 154.854 20.0605 155.098 19.2988 155.098C18.5371 155.098 17.9284 154.854 17.4727 154.365C17.0202 153.877 16.7939 153.213 16.7939 152.373V152.31ZM18.2051 152.412C18.2051 152.913 18.2995 153.298 18.4883 153.564C18.6771 153.828 18.9473 153.96 19.2988 153.96C19.6406 153.96 19.9076 153.83 20.0996 153.569C20.2917 153.306 20.3877 152.886 20.3877 152.31C20.3877 151.818 20.2917 151.437 20.0996 151.167C19.9076 150.897 19.6374 150.762 19.2891 150.762C18.944 150.762 18.6771 150.897 18.4883 151.167C18.2995 151.434 18.2051 151.849 18.2051 152.412ZM24.1621 149.717V155.288C24.1621 155.871 24.0075 156.323 23.6982 156.646C23.389 156.971 22.943 157.134 22.3604 157.134C22.1162 157.134 21.8835 157.106 21.6621 157.051V155.933C21.8314 155.962 21.9795 155.977 22.1064 155.977C22.5329 155.977 22.7461 155.75 22.7461 155.298V149.717H24.1621ZM22.6338 148.35C22.6338 148.138 22.7038 147.964 22.8438 147.827C22.987 147.69 23.1807 147.622 23.4248 147.622C23.6689 147.622 23.861 147.69 24.001 147.827C24.1442 147.964 24.2158 148.138 24.2158 148.35C24.2158 148.564 24.1426 148.74 23.9961 148.877C23.8529 149.014 23.6624 149.082 23.4248 149.082C23.1872 149.082 22.9951 149.014 22.8486 148.877C22.7054 148.74 22.6338 148.564 22.6338 148.35ZM27.6973 155.098C26.9225 155.098 26.291 154.86 25.8027 154.385C25.3177 153.91 25.0752 153.276 25.0752 152.485V152.349C25.0752 151.818 25.1777 151.344 25.3828 150.928C25.5879 150.508 25.8776 150.186 26.252 149.961C26.6296 149.733 27.0592 149.619 27.541 149.619C28.2637 149.619 28.8317 149.847 29.2451 150.303C29.6618 150.758 29.8701 151.405 29.8701 152.241V152.817H26.5059C26.5514 153.162 26.6882 153.439 26.916 153.647C27.1471 153.856 27.4385 153.96 27.79 153.96C28.3337 153.96 28.7585 153.763 29.0645 153.369L29.7578 154.146C29.5462 154.445 29.2598 154.679 28.8984 154.849C28.5371 155.015 28.1367 155.098 27.6973 155.098ZM27.5361 150.762C27.2562 150.762 27.0283 150.856 26.8525 151.045C26.68 151.234 26.5693 151.504 26.5205 151.855H28.4834V151.743C28.4769 151.431 28.3923 151.19 28.2295 151.021C28.0667 150.848 27.8356 150.762 27.5361 150.762ZM32.873 153.96C33.1335 153.96 33.3451 153.888 33.5078 153.745C33.6706 153.602 33.7552 153.411 33.7617 153.174H35.085C35.0817 153.532 34.984 153.861 34.792 154.16C34.5999 154.456 34.3363 154.688 34.001 154.854C33.6689 155.016 33.3011 155.098 32.8975 155.098C32.1423 155.098 31.5465 154.858 31.1104 154.38C30.6742 153.898 30.4561 153.234 30.4561 152.388V152.295C30.4561 151.481 30.6725 150.832 31.1055 150.347C31.5384 149.862 32.1325 149.619 32.8877 149.619C33.5485 149.619 34.0775 149.808 34.4746 150.186C34.875 150.56 35.0785 151.06 35.085 151.685H33.7617C33.7552 151.411 33.6706 151.19 33.5078 151.021C33.3451 150.848 33.1302 150.762 32.8633 150.762C32.5345 150.762 32.2855 150.882 32.1162 151.123C31.9502 151.361 31.8672 151.748 31.8672 152.285V152.432C31.8672 152.975 31.9502 153.366 32.1162 153.604C32.2822 153.841 32.5345 153.96 32.873 153.96ZM37.5801 148.418V149.717H38.4834V150.752H37.5801V153.389C37.5801 153.584 37.6175 153.724 37.6924 153.809C37.7673 153.893 37.9105 153.936 38.1221 153.936C38.2783 153.936 38.4167 153.924 38.5371 153.901V154.971C38.2604 155.055 37.9756 155.098 37.6826 155.098C36.693 155.098 36.1885 154.598 36.1689 153.599V150.752H35.3975V149.717H36.1689V148.418H37.5801ZM47.3896 152.949L48.3467 147.891H49.8066L48.2295 155H46.7549L45.5977 150.244L44.4404 155H42.9658L41.3887 147.891H42.8486L43.8105 152.939L44.9824 147.891H46.2227L47.3896 152.949ZM50.1338 152.31C50.1338 151.785 50.2347 151.318 50.4365 150.908C50.6383 150.498 50.9281 150.181 51.3057 149.956C51.6865 149.731 52.1276 149.619 52.6289 149.619C53.3418 149.619 53.9229 149.837 54.3721 150.273C54.8245 150.71 55.0768 151.302 55.1289 152.051L55.1387 152.412C55.1387 153.223 54.9124 153.874 54.46 154.365C54.0075 154.854 53.4004 155.098 52.6387 155.098C51.877 155.098 51.2682 154.854 50.8125 154.365C50.36 153.877 50.1338 153.213 50.1338 152.373V152.31ZM51.5449 152.412C51.5449 152.913 51.6393 153.298 51.8281 153.564C52.0169 153.828 52.2871 153.96 52.6387 153.96C52.9805 153.96 53.2474 153.83 53.4395 153.569C53.6315 153.306 53.7275 152.886 53.7275 152.31C53.7275 151.818 53.6315 151.437 53.4395 151.167C53.2474 150.897 52.9772 150.762 52.6289 150.762C52.2839 150.762 52.0169 150.897 51.8281 151.167C51.6393 151.434 51.5449 151.849 51.5449 152.412ZM58.9766 151.04C58.7845 151.014 58.6152 151.001 58.4688 151.001C57.9349 151.001 57.585 151.182 57.4189 151.543V155H56.0078V149.717H57.3408L57.3799 150.347C57.6631 149.862 58.0553 149.619 58.5566 149.619C58.7129 149.619 58.8594 149.64 58.9961 149.683L58.9766 151.04ZM61.5791 152.881L61.0713 153.389V155H59.6602V147.5H61.0713V151.655L61.3447 151.304L62.6973 149.717H64.3916L62.4824 151.919L64.5576 155H62.9365L61.5791 152.881Z" fill="#2D6B22"/>
<path d="M6.28906 162.09H7.07812V162.68H6.28906V164H5.5625V162.68H2.97266V162.254L5.51953 158.312H6.28906V162.09ZM3.79297 162.09H5.5625V159.301L5.47656 159.457L3.79297 162.09ZM14.2773 161.34C14.2773 161.897 14.1836 162.384 13.9961 162.801C13.8086 163.215 13.543 163.531 13.1992 163.75C12.8555 163.969 12.4544 164.078 11.9961 164.078C11.5482 164.078 11.151 163.969 10.8047 163.75C10.4583 163.529 10.1888 163.215 9.99609 162.809C9.80599 162.4 9.70833 161.927 9.70312 161.391V160.98C9.70312 160.434 9.79818 159.951 9.98828 159.531C10.1784 159.112 10.4466 158.792 10.793 158.57C11.1419 158.346 11.5404 158.234 11.9883 158.234C12.444 158.234 12.8451 158.345 13.1914 158.566C13.5404 158.785 13.8086 159.104 13.9961 159.523C14.1836 159.94 14.2773 160.426 14.2773 160.98V161.34ZM13.5312 160.973C13.5312 160.298 13.3958 159.781 13.125 159.422C12.8542 159.06 12.4753 158.879 11.9883 158.879C11.5143 158.879 11.1406 159.06 10.8672 159.422C10.5964 159.781 10.457 160.281 10.4492 160.922V161.34C10.4492 161.993 10.5859 162.508 10.8594 162.883C11.1354 163.255 11.5143 163.441 11.9961 163.441C12.4805 163.441 12.8555 163.266 13.1211 162.914C13.3867 162.56 13.5234 162.053 13.5312 161.395V160.973ZM16.9844 163.488C17.2422 163.488 17.4674 163.41 17.6602 163.254C17.8529 163.098 17.9596 162.902 17.9805 162.668H18.6641C18.651 162.91 18.5677 163.141 18.4141 163.359C18.2604 163.578 18.0547 163.753 17.7969 163.883C17.5417 164.013 17.2708 164.078 16.9844 164.078C16.4089 164.078 15.9505 163.887 15.6094 163.504C15.2708 163.118 15.1016 162.592 15.1016 161.926V161.805C15.1016 161.393 15.1771 161.027 15.3281 160.707C15.4792 160.387 15.6953 160.138 15.9766 159.961C16.2604 159.784 16.5951 159.695 16.9805 159.695C17.4544 159.695 17.8477 159.837 18.1602 160.121C18.4753 160.405 18.6432 160.773 18.6641 161.227H17.9805C17.9596 160.953 17.8555 160.729 17.668 160.555C17.4831 160.378 17.2539 160.289 16.9805 160.289C16.6133 160.289 16.3281 160.422 16.125 160.688C15.9245 160.951 15.8242 161.332 15.8242 161.832V161.969C15.8242 162.456 15.9245 162.831 16.125 163.094C16.3255 163.357 16.612 163.488 16.9844 163.488ZM20.457 158.75V159.773H21.2461V160.332H20.457V162.953C20.457 163.122 20.4922 163.25 20.5625 163.336C20.6328 163.419 20.7526 163.461 20.9219 163.461C21.0052 163.461 21.1198 163.445 21.2656 163.414V164C21.0755 164.052 20.8906 164.078 20.7109 164.078C20.388 164.078 20.1445 163.98 19.9805 163.785C19.8164 163.59 19.7344 163.312 19.7344 162.953V160.332H18.9648V159.773H19.7344V158.75H20.457ZM25.582 161.879H23.6758V161.289H25.582V161.879ZM31.8711 158.719L29.5156 164H28.7578L31.1055 158.906H28.0273V158.312H31.8711V158.719ZM39.2344 164H38.4805L35.6172 159.617V164H34.8633V158.312H35.6172L38.4883 162.715V158.312H39.2344V164ZM40.2617 161.848C40.2617 161.434 40.3424 161.061 40.5039 160.73C40.668 160.4 40.8945 160.145 41.1836 159.965C41.4753 159.785 41.8073 159.695 42.1797 159.695C42.7552 159.695 43.2201 159.895 43.5742 160.293C43.931 160.691 44.1094 161.221 44.1094 161.883V161.934C44.1094 162.345 44.0299 162.715 43.8711 163.043C43.7148 163.368 43.4896 163.622 43.1953 163.805C42.9036 163.987 42.5677 164.078 42.1875 164.078C41.6146 164.078 41.1497 163.879 40.793 163.48C40.4388 163.082 40.2617 162.555 40.2617 161.898V161.848ZM40.9883 161.934C40.9883 162.402 41.0964 162.779 41.3125 163.062C41.5312 163.346 41.8229 163.488 42.1875 163.488C42.5547 163.488 42.8464 163.345 43.0625 163.059C43.2786 162.77 43.3867 162.366 43.3867 161.848C43.3867 161.384 43.276 161.009 43.0547 160.723C42.8359 160.434 42.5443 160.289 42.1797 160.289C41.8229 160.289 41.5352 160.431 41.3164 160.715C41.0977 160.999 40.9883 161.405 40.9883 161.934ZM46.3477 163.02L47.3945 159.773H48.1328L46.6172 164H46.0664L44.5352 159.773H45.2734L46.3477 163.02ZM54.4648 164H50.7383V163.48L52.707 161.293C52.9987 160.962 53.1992 160.694 53.3086 160.488C53.4206 160.28 53.4766 160.065 53.4766 159.844C53.4766 159.547 53.3867 159.303 53.207 159.113C53.0273 158.923 52.7878 158.828 52.4883 158.828C52.1289 158.828 51.849 158.931 51.6484 159.137C51.4505 159.34 51.3516 159.624 51.3516 159.988H50.6289C50.6289 159.465 50.7969 159.042 51.1328 158.719C51.4714 158.396 51.9232 158.234 52.4883 158.234C53.0169 158.234 53.4349 158.374 53.7422 158.652C54.0495 158.928 54.2031 159.297 54.2031 159.758C54.2031 160.318 53.8464 160.984 53.1328 161.758L51.6094 163.41H54.4648V164ZM58.7969 161.574C58.7969 162.421 58.6523 163.049 58.3633 163.461C58.0742 163.872 57.6224 164.078 57.0078 164.078C56.401 164.078 55.9518 163.878 55.6602 163.477C55.3685 163.073 55.2174 162.471 55.207 161.672V160.707C55.207 159.871 55.3516 159.25 55.6406 158.844C55.9297 158.438 56.3828 158.234 57 158.234C57.612 158.234 58.0625 158.431 58.3516 158.824C58.6406 159.215 58.7891 159.819 58.7969 160.637V161.574ZM58.0742 160.586C58.0742 159.974 57.9883 159.529 57.8164 159.25C57.6445 158.969 57.3724 158.828 57 158.828C56.6302 158.828 56.3607 158.967 56.1914 159.246C56.0221 159.525 55.9349 159.953 55.9297 160.531V161.688C55.9297 162.302 56.0182 162.757 56.1953 163.051C56.375 163.342 56.6458 163.488 57.0078 163.488C57.3646 163.488 57.6289 163.35 57.8008 163.074C57.9753 162.798 58.0664 162.363 58.0742 161.77V160.586ZM63.4492 164H59.7227V163.48L61.6914 161.293C61.9831 160.962 62.1836 160.694 62.293 160.488C62.4049 160.28 62.4609 160.065 62.4609 159.844C62.4609 159.547 62.3711 159.303 62.1914 159.113C62.0117 158.923 61.7721 158.828 61.4727 158.828C61.1133 158.828 60.8333 158.931 60.6328 159.137C60.4349 159.34 60.3359 159.624 60.3359 159.988H59.6133C59.6133 159.465 59.7812 159.042 60.1172 158.719C60.4557 158.396 60.9076 158.234 61.4727 158.234C62.0013 158.234 62.4193 158.374 62.7266 158.652C63.0339 158.928 63.1875 159.297 63.1875 159.758C63.1875 160.318 62.8307 160.984 62.1172 161.758L60.5938 163.41H63.4492V164ZM66.5898 164H65.8633V159.184L64.4062 159.719V159.062L66.4766 158.285H66.5898V164Z" fill="#515252"/>
<path d="M169.571 102.823H172.682V104H168.106V96.8906H169.571V102.823ZM175.753 101.148L174.991 101.969V104H173.526V96.8906H174.991V100.113L175.636 99.2295L177.447 96.8906H179.249L176.725 100.05L179.322 104H177.579L175.753 101.148ZM181.788 96.8906L183.614 102.047L185.431 96.8906H187.354V104H185.885V102.057L186.031 98.7021L184.112 104H183.106L181.192 98.707L181.339 102.057V104H179.874V96.8906H181.788ZM191.124 104V96.8906H193.312C193.937 96.8906 194.495 97.0322 194.986 97.3154C195.481 97.5954 195.867 97.9958 196.144 98.5166C196.42 99.0342 196.559 99.6234 196.559 100.284V100.611C196.559 101.272 196.422 101.86 196.148 102.374C195.878 102.888 195.496 103.287 195.001 103.57C194.506 103.854 193.948 103.997 193.326 104H191.124ZM192.589 98.0771V102.823H193.297C193.87 102.823 194.308 102.636 194.61 102.262C194.913 101.887 195.068 101.352 195.074 100.655V100.279C195.074 99.5566 194.924 99.0098 194.625 98.6387C194.326 98.2643 193.888 98.0771 193.312 98.0771H192.589ZM200.597 104C200.532 103.873 200.484 103.715 200.455 103.526C200.113 103.907 199.669 104.098 199.122 104.098C198.604 104.098 198.175 103.948 197.833 103.648C197.494 103.349 197.325 102.971 197.325 102.516C197.325 101.956 197.532 101.526 197.945 101.227C198.362 100.927 198.963 100.776 199.747 100.772H200.396V100.47C200.396 100.226 200.333 100.03 200.206 99.8838C200.082 99.7373 199.885 99.6641 199.615 99.6641C199.378 99.6641 199.19 99.721 199.054 99.835C198.92 99.9489 198.854 100.105 198.854 100.304H197.442C197.442 99.9977 197.537 99.7145 197.726 99.4541C197.914 99.1937 198.181 98.9902 198.526 98.8438C198.871 98.694 199.259 98.6191 199.688 98.6191C200.34 98.6191 200.855 98.7835 201.236 99.1123C201.62 99.4378 201.812 99.8968 201.812 100.489V102.779C201.816 103.281 201.886 103.66 202.022 103.917V104H200.597ZM199.43 103.019C199.638 103.019 199.83 102.973 200.006 102.882C200.182 102.787 200.312 102.662 200.396 102.506V101.598H199.869C199.163 101.598 198.787 101.842 198.741 102.33L198.736 102.413C198.736 102.589 198.798 102.734 198.922 102.848C199.046 102.962 199.215 103.019 199.43 103.019ZM204.791 102.003L205.768 98.7168H207.281L205.157 104.82L205.04 105.099C204.724 105.789 204.203 106.134 203.478 106.134C203.272 106.134 203.064 106.103 202.853 106.041V104.972L203.067 104.977C203.334 104.977 203.533 104.936 203.663 104.854C203.797 104.773 203.901 104.638 203.976 104.449L204.142 104.015L202.291 98.7168H203.81L204.791 102.003ZM214.444 101.324H215.25V102.462H214.444V104H213.033V102.462H210.118L210.055 101.573L213.019 96.8906H214.444V101.324ZM211.461 101.324H213.033V98.8145L212.94 98.9756L211.461 101.324Z" fill="#8AB446"/>
<path d="M172.188 113H168.461V112.48L170.43 110.293C170.721 109.962 170.922 109.694 171.031 109.488C171.143 109.28 171.199 109.065 171.199 108.844C171.199 108.547 171.109 108.303 170.93 108.113C170.75 107.923 170.51 107.828 170.211 107.828C169.852 107.828 169.572 107.931 169.371 108.137C169.173 108.34 169.074 108.624 169.074 108.988H168.352C168.352 108.465 168.52 108.042 168.855 107.719C169.194 107.396 169.646 107.234 170.211 107.234C170.74 107.234 171.158 107.374 171.465 107.652C171.772 107.928 171.926 108.297 171.926 108.758C171.926 109.318 171.569 109.984 170.855 110.758L169.332 112.41H172.188V113ZM173.285 110.148L173.574 107.312H176.488V107.98H174.188L174.016 109.531C174.294 109.367 174.611 109.285 174.965 109.285C175.483 109.285 175.895 109.457 176.199 109.801C176.504 110.142 176.656 110.604 176.656 111.188C176.656 111.773 176.497 112.236 176.18 112.574C175.865 112.91 175.423 113.078 174.855 113.078C174.353 113.078 173.943 112.939 173.625 112.66C173.307 112.382 173.126 111.996 173.082 111.504H173.766C173.81 111.829 173.926 112.076 174.113 112.242C174.301 112.406 174.548 112.488 174.855 112.488C175.191 112.488 175.454 112.374 175.645 112.145C175.837 111.915 175.934 111.599 175.934 111.195C175.934 110.815 175.829 110.51 175.621 110.281C175.415 110.049 175.141 109.934 174.797 109.934C174.482 109.934 174.234 110.003 174.055 110.141L173.863 110.297L173.285 110.148ZM181.293 110.465C180.65 110.28 180.181 110.053 179.887 109.785C179.595 109.514 179.449 109.181 179.449 108.785C179.449 108.337 179.628 107.967 179.984 107.676C180.344 107.382 180.81 107.234 181.383 107.234C181.773 107.234 182.121 107.31 182.426 107.461C182.733 107.612 182.97 107.82 183.137 108.086C183.306 108.352 183.391 108.642 183.391 108.957H182.637C182.637 108.613 182.527 108.344 182.309 108.148C182.09 107.951 181.781 107.852 181.383 107.852C181.013 107.852 180.724 107.934 180.516 108.098C180.31 108.259 180.207 108.484 180.207 108.773C180.207 109.005 180.305 109.202 180.5 109.363C180.698 109.522 181.033 109.668 181.504 109.801C181.978 109.934 182.348 110.081 182.613 110.242C182.882 110.401 183.079 110.587 183.207 110.801C183.337 111.014 183.402 111.266 183.402 111.555C183.402 112.016 183.223 112.385 182.863 112.664C182.504 112.94 182.023 113.078 181.422 113.078C181.031 113.078 180.667 113.004 180.328 112.855C179.99 112.704 179.728 112.499 179.543 112.238C179.361 111.978 179.27 111.682 179.27 111.352H180.023C180.023 111.695 180.15 111.967 180.402 112.168C180.658 112.366 180.997 112.465 181.422 112.465C181.818 112.465 182.121 112.384 182.332 112.223C182.543 112.061 182.648 111.841 182.648 111.562C182.648 111.284 182.551 111.069 182.355 110.918C182.16 110.764 181.806 110.613 181.293 110.465ZM186.008 113.078C185.435 113.078 184.969 112.891 184.609 112.516C184.25 112.138 184.07 111.634 184.07 111.004V110.871C184.07 110.452 184.15 110.078 184.309 109.75C184.47 109.419 184.694 109.161 184.98 108.977C185.27 108.789 185.582 108.695 185.918 108.695C186.467 108.695 186.895 108.876 187.199 109.238C187.504 109.6 187.656 110.118 187.656 110.793V111.094H184.793C184.803 111.51 184.924 111.848 185.156 112.105C185.391 112.361 185.688 112.488 186.047 112.488C186.302 112.488 186.518 112.436 186.695 112.332C186.872 112.228 187.027 112.09 187.16 111.918L187.602 112.262C187.247 112.806 186.716 113.078 186.008 113.078ZM185.918 109.289C185.626 109.289 185.382 109.396 185.184 109.609C184.986 109.82 184.863 110.117 184.816 110.5H186.934V110.445C186.913 110.078 186.814 109.794 186.637 109.594C186.46 109.391 186.22 109.289 185.918 109.289ZM192.066 110.934C192.066 111.577 191.919 112.095 191.625 112.488C191.331 112.882 190.932 113.078 190.43 113.078C189.917 113.078 189.513 112.915 189.219 112.59V114.625H188.496V108.773H189.156L189.191 109.242C189.486 108.878 189.895 108.695 190.418 108.695C190.926 108.695 191.327 108.887 191.621 109.27C191.918 109.652 192.066 110.185 192.066 110.867V110.934ZM191.344 110.852C191.344 110.375 191.242 109.999 191.039 109.723C190.836 109.447 190.557 109.309 190.203 109.309C189.766 109.309 189.438 109.503 189.219 109.891V111.91C189.435 112.296 189.766 112.488 190.211 112.488C190.557 112.488 190.832 112.352 191.035 112.078C191.241 111.802 191.344 111.393 191.344 110.852ZM193.969 107.75V108.773H194.758V109.332H193.969V111.953C193.969 112.122 194.004 112.25 194.074 112.336C194.145 112.419 194.264 112.461 194.434 112.461C194.517 112.461 194.632 112.445 194.777 112.414V113C194.587 113.052 194.402 113.078 194.223 113.078C193.9 113.078 193.656 112.98 193.492 112.785C193.328 112.59 193.246 112.312 193.246 111.953V109.332H192.477V108.773H193.246V107.75H193.969ZM201.242 113H197.516V112.48L199.484 110.293C199.776 109.962 199.977 109.694 200.086 109.488C200.198 109.28 200.254 109.065 200.254 108.844C200.254 108.547 200.164 108.303 199.984 108.113C199.805 107.923 199.565 107.828 199.266 107.828C198.906 107.828 198.626 107.931 198.426 108.137C198.228 108.34 198.129 108.624 198.129 108.988H197.406C197.406 108.465 197.574 108.042 197.91 107.719C198.249 107.396 198.701 107.234 199.266 107.234C199.794 107.234 200.212 107.374 200.52 107.652C200.827 107.928 200.98 108.297 200.98 108.758C200.98 109.318 200.624 109.984 199.91 110.758L198.387 112.41H201.242V113ZM205.574 110.574C205.574 111.421 205.43 112.049 205.141 112.461C204.852 112.872 204.4 113.078 203.785 113.078C203.178 113.078 202.729 112.878 202.438 112.477C202.146 112.073 201.995 111.471 201.984 110.672V109.707C201.984 108.871 202.129 108.25 202.418 107.844C202.707 107.438 203.16 107.234 203.777 107.234C204.389 107.234 204.84 107.431 205.129 107.824C205.418 108.215 205.566 108.819 205.574 109.637V110.574ZM204.852 109.586C204.852 108.974 204.766 108.529 204.594 108.25C204.422 107.969 204.15 107.828 203.777 107.828C203.408 107.828 203.138 107.967 202.969 108.246C202.799 108.525 202.712 108.953 202.707 109.531V110.688C202.707 111.302 202.796 111.757 202.973 112.051C203.152 112.342 203.423 112.488 203.785 112.488C204.142 112.488 204.406 112.35 204.578 112.074C204.753 111.798 204.844 111.363 204.852 110.77V109.586ZM210.227 113H206.5V112.48L208.469 110.293C208.76 109.962 208.961 109.694 209.07 109.488C209.182 109.28 209.238 109.065 209.238 108.844C209.238 108.547 209.148 108.303 208.969 108.113C208.789 107.923 208.549 107.828 208.25 107.828C207.891 107.828 207.611 107.931 207.41 108.137C207.212 108.34 207.113 108.624 207.113 108.988H206.391C206.391 108.465 206.559 108.042 206.895 107.719C207.233 107.396 207.685 107.234 208.25 107.234C208.779 107.234 209.197 107.374 209.504 107.652C209.811 107.928 209.965 108.297 209.965 108.758C209.965 109.318 209.608 109.984 208.895 110.758L207.371 112.41H210.227V113ZM213.367 113H212.641V108.184L211.184 108.719V108.062L213.254 107.285H213.367V113Z" fill="#515252"/>
<path d="M65.5713 102.823H68.6816V104H64.1064V96.8906H65.5713V102.823ZM71.7529 101.148L70.9912 101.969V104H69.5264V96.8906H70.9912V100.113L71.6357 99.2295L73.4473 96.8906H75.249L72.7246 100.05L75.3223 104H73.5791L71.7529 101.148ZM77.7881 96.8906L79.6143 102.047L81.4307 96.8906H83.3545V104H81.8848V102.057L82.0312 98.7021L80.1123 104H79.1064L77.1924 98.707L77.3389 102.057V104H75.874V96.8906H77.7881ZM87.124 104V96.8906H89.3115C89.9365 96.8906 90.4948 97.0322 90.9863 97.3154C91.4811 97.5954 91.8669 97.9958 92.1436 98.5166C92.4202 99.0342 92.5586 99.6234 92.5586 100.284V100.611C92.5586 101.272 92.4219 101.86 92.1484 102.374C91.8783 102.888 91.4958 103.287 91.001 103.57C90.5062 103.854 89.9479 103.997 89.3262 104H87.124ZM88.5889 98.0771V102.823H89.2969C89.8698 102.823 90.3076 102.636 90.6104 102.262C90.9131 101.887 91.0677 101.352 91.0742 100.655V100.279C91.0742 99.5566 90.9245 99.0098 90.625 98.6387C90.3255 98.2643 89.8877 98.0771 89.3115 98.0771H88.5889ZM96.5967 104C96.5316 103.873 96.4844 103.715 96.4551 103.526C96.1133 103.907 95.6689 104.098 95.1221 104.098C94.6045 104.098 94.1748 103.948 93.833 103.648C93.4945 103.349 93.3252 102.971 93.3252 102.516C93.3252 101.956 93.5319 101.526 93.9453 101.227C94.362 100.927 94.9626 100.776 95.7471 100.772H96.3965V100.47C96.3965 100.226 96.333 100.03 96.2061 99.8838C96.0824 99.7373 95.8854 99.6641 95.6152 99.6641C95.3776 99.6641 95.1904 99.721 95.0537 99.835C94.9202 99.9489 94.8535 100.105 94.8535 100.304H93.4424C93.4424 99.9977 93.5368 99.7145 93.7256 99.4541C93.9144 99.1937 94.1813 98.9902 94.5264 98.8438C94.8714 98.694 95.2588 98.6191 95.6885 98.6191C96.3395 98.6191 96.8555 98.7835 97.2363 99.1123C97.6204 99.4378 97.8125 99.8968 97.8125 100.489V102.779C97.8158 103.281 97.8857 103.66 98.0225 103.917V104H96.5967ZM95.4297 103.019C95.638 103.019 95.8301 102.973 96.0059 102.882C96.1816 102.787 96.3118 102.662 96.3965 102.506V101.598H95.8691C95.1628 101.598 94.7868 101.842 94.7412 102.33L94.7363 102.413C94.7363 102.589 94.7982 102.734 94.9219 102.848C95.0456 102.962 95.2148 103.019 95.4297 103.019ZM100.791 102.003L101.768 98.7168H103.281L101.157 104.82L101.04 105.099C100.724 105.789 100.203 106.134 99.4775 106.134C99.2725 106.134 99.0641 106.103 98.8525 106.041V104.972L99.0674 104.977C99.3343 104.977 99.5329 104.936 99.6631 104.854C99.7965 104.773 99.9007 104.638 99.9756 104.449L100.142 104.015L98.291 98.7168H99.8096L100.791 102.003ZM106.479 100.504L106.89 96.8906H110.874V98.0674H108.047L107.871 99.5957C108.206 99.4167 108.563 99.3271 108.94 99.3271C109.618 99.3271 110.148 99.5371 110.532 99.957C110.916 100.377 111.108 100.965 111.108 101.72C111.108 102.179 111.011 102.59 110.815 102.955C110.623 103.316 110.347 103.598 109.985 103.8C109.624 103.998 109.198 104.098 108.706 104.098C108.276 104.098 107.878 104.011 107.51 103.839C107.142 103.663 106.851 103.417 106.636 103.102C106.424 102.786 106.312 102.426 106.299 102.022H107.695C107.725 102.319 107.827 102.55 108.003 102.716C108.182 102.879 108.415 102.96 108.701 102.96C109.02 102.96 109.266 102.846 109.438 102.618C109.611 102.387 109.697 102.062 109.697 101.642C109.697 101.238 109.598 100.929 109.399 100.714C109.201 100.499 108.919 100.392 108.555 100.392C108.219 100.392 107.948 100.479 107.739 100.655L107.603 100.782L106.479 100.504Z" fill="#8AB446"/>
<path d="M72.332 113H68.6055V112.48L70.5742 110.293C70.8659 109.962 71.0664 109.694 71.1758 109.488C71.2878 109.28 71.3438 109.065 71.3438 108.844C71.3438 108.547 71.2539 108.303 71.0742 108.113C70.8945 107.923 70.6549 107.828 70.3555 107.828C69.9961 107.828 69.7161 107.931 69.5156 108.137C69.3177 108.34 69.2188 108.624 69.2188 108.988H68.4961C68.4961 108.465 68.6641 108.042 69 107.719C69.3385 107.396 69.7904 107.234 70.3555 107.234C70.8841 107.234 71.3021 107.374 71.6094 107.652C71.9167 107.928 72.0703 108.297 72.0703 108.758C72.0703 109.318 71.7135 109.984 71 110.758L69.4766 112.41H72.332V113ZM79.6445 110.34C79.6445 110.897 79.5508 111.384 79.3633 111.801C79.1758 112.215 78.9102 112.531 78.5664 112.75C78.2227 112.969 77.8216 113.078 77.3633 113.078C76.9154 113.078 76.5182 112.969 76.1719 112.75C75.8255 112.529 75.556 112.215 75.3633 111.809C75.1732 111.4 75.0755 110.927 75.0703 110.391V109.98C75.0703 109.434 75.1654 108.951 75.3555 108.531C75.5456 108.112 75.8138 107.792 76.1602 107.57C76.5091 107.346 76.9076 107.234 77.3555 107.234C77.8112 107.234 78.2122 107.345 78.5586 107.566C78.9076 107.785 79.1758 108.104 79.3633 108.523C79.5508 108.94 79.6445 109.426 79.6445 109.98V110.34ZM78.8984 109.973C78.8984 109.298 78.763 108.781 78.4922 108.422C78.2214 108.06 77.8424 107.879 77.3555 107.879C76.8815 107.879 76.5078 108.06 76.2344 108.422C75.9635 108.781 75.8242 109.281 75.8164 109.922V110.34C75.8164 110.993 75.9531 111.508 76.2266 111.883C76.5026 112.255 76.8815 112.441 77.3633 112.441C77.8477 112.441 78.2227 112.266 78.4883 111.914C78.7539 111.56 78.8906 111.053 78.8984 110.395V109.973ZM82.3516 112.488C82.6094 112.488 82.8346 112.41 83.0273 112.254C83.2201 112.098 83.3268 111.902 83.3477 111.668H84.0312C84.0182 111.91 83.9349 112.141 83.7812 112.359C83.6276 112.578 83.4219 112.753 83.1641 112.883C82.9089 113.013 82.638 113.078 82.3516 113.078C81.776 113.078 81.3177 112.887 80.9766 112.504C80.638 112.118 80.4688 111.592 80.4688 110.926V110.805C80.4688 110.393 80.5443 110.027 80.6953 109.707C80.8464 109.387 81.0625 109.138 81.3438 108.961C81.6276 108.784 81.9622 108.695 82.3477 108.695C82.8216 108.695 83.2148 108.837 83.5273 109.121C83.8424 109.405 84.0104 109.773 84.0312 110.227H83.3477C83.3268 109.953 83.2227 109.729 83.0352 109.555C82.8503 109.378 82.6211 109.289 82.3477 109.289C81.9805 109.289 81.6953 109.422 81.4922 109.688C81.2917 109.951 81.1914 110.332 81.1914 110.832V110.969C81.1914 111.456 81.2917 111.831 81.4922 112.094C81.6927 112.357 81.9792 112.488 82.3516 112.488ZM85.8242 107.75V108.773H86.6133V109.332H85.8242V111.953C85.8242 112.122 85.8594 112.25 85.9297 112.336C86 112.419 86.1198 112.461 86.2891 112.461C86.3724 112.461 86.487 112.445 86.6328 112.414V113C86.4427 113.052 86.2578 113.078 86.0781 113.078C85.7552 113.078 85.5117 112.98 85.3477 112.785C85.1836 112.59 85.1016 112.312 85.1016 111.953V109.332H84.332V108.773H85.1016V107.75H85.8242ZM93.0977 113H89.3711V112.48L91.3398 110.293C91.6315 109.962 91.832 109.694 91.9414 109.488C92.0534 109.28 92.1094 109.065 92.1094 108.844C92.1094 108.547 92.0195 108.303 91.8398 108.113C91.6602 107.923 91.4206 107.828 91.1211 107.828C90.7617 107.828 90.4818 107.931 90.2812 108.137C90.0833 108.34 89.9844 108.624 89.9844 108.988H89.2617C89.2617 108.465 89.4297 108.042 89.7656 107.719C90.1042 107.396 90.556 107.234 91.1211 107.234C91.6497 107.234 92.0677 107.374 92.375 107.652C92.6823 107.928 92.8359 108.297 92.8359 108.758C92.8359 109.318 92.4792 109.984 91.7656 110.758L90.2422 112.41H93.0977V113ZM97.4297 110.574C97.4297 111.421 97.2852 112.049 96.9961 112.461C96.707 112.872 96.2552 113.078 95.6406 113.078C95.0339 113.078 94.5846 112.878 94.293 112.477C94.0013 112.073 93.8503 111.471 93.8398 110.672V109.707C93.8398 108.871 93.9844 108.25 94.2734 107.844C94.5625 107.438 95.0156 107.234 95.6328 107.234C96.2448 107.234 96.6953 107.431 96.9844 107.824C97.2734 108.215 97.4219 108.819 97.4297 109.637V110.574ZM96.707 109.586C96.707 108.974 96.6211 108.529 96.4492 108.25C96.2773 107.969 96.0052 107.828 95.6328 107.828C95.263 107.828 94.9935 107.967 94.8242 108.246C94.6549 108.525 94.5677 108.953 94.5625 109.531V110.688C94.5625 111.302 94.651 111.757 94.8281 112.051C95.0078 112.342 95.2786 112.488 95.6406 112.488C95.9974 112.488 96.2617 112.35 96.4336 112.074C96.6081 111.798 96.6992 111.363 96.707 110.77V109.586ZM102.082 113H98.3555V112.48L100.324 110.293C100.616 109.962 100.816 109.694 100.926 109.488C101.038 109.28 101.094 109.065 101.094 108.844C101.094 108.547 101.004 108.303 100.824 108.113C100.645 107.923 100.405 107.828 100.105 107.828C99.7461 107.828 99.4661 107.931 99.2656 108.137C99.0677 108.34 98.9688 108.624 98.9688 108.988H98.2461C98.2461 108.465 98.4141 108.042 98.75 107.719C99.0885 107.396 99.5404 107.234 100.105 107.234C100.634 107.234 101.052 107.374 101.359 107.652C101.667 107.928 101.82 108.297 101.82 108.758C101.82 109.318 101.464 109.984 100.75 110.758L99.2266 112.41H102.082V113ZM105.223 113H104.496V108.184L103.039 108.719V108.062L105.109 107.285H105.223V113Z" fill="#515252"/>
<path d="M220.571 11.8232H223.682V13H219.106V5.89062H220.571V11.8232ZM226.753 10.1484L225.991 10.9688V13H224.526V5.89062H225.991V9.11328L226.636 8.22949L228.447 5.89062H230.249L227.725 9.0498L230.322 13H228.579L226.753 10.1484ZM232.788 5.89062L234.614 11.0469L236.431 5.89062H238.354V13H236.885V11.0566L237.031 7.70215L235.112 13H234.106L232.192 7.70703L232.339 11.0566V13H230.874V5.89062H232.788ZM242.124 13V5.89062H244.312C244.937 5.89062 245.495 6.03223 245.986 6.31543C246.481 6.59538 246.867 6.99577 247.144 7.5166C247.42 8.03418 247.559 8.62337 247.559 9.28418V9.61133C247.559 10.2721 247.422 10.8597 247.148 11.374C246.878 11.8883 246.496 12.2871 246.001 12.5703C245.506 12.8535 244.948 12.9967 244.326 13H242.124ZM243.589 7.07715V11.8232H244.297C244.87 11.8232 245.308 11.6361 245.61 11.2617C245.913 10.8874 246.068 10.3519 246.074 9.65527V9.2793C246.074 8.55664 245.924 8.00977 245.625 7.63867C245.326 7.26432 244.888 7.07715 244.312 7.07715H243.589ZM251.597 13C251.532 12.873 251.484 12.7152 251.455 12.5264C251.113 12.9072 250.669 13.0977 250.122 13.0977C249.604 13.0977 249.175 12.9479 248.833 12.6484C248.494 12.349 248.325 11.9714 248.325 11.5156C248.325 10.9557 248.532 10.526 248.945 10.2266C249.362 9.92708 249.963 9.77572 250.747 9.77246H251.396V9.46973C251.396 9.22559 251.333 9.03027 251.206 8.88379C251.082 8.7373 250.885 8.66406 250.615 8.66406C250.378 8.66406 250.19 8.72103 250.054 8.83496C249.92 8.94889 249.854 9.10514 249.854 9.30371H248.442C248.442 8.99772 248.537 8.71452 248.726 8.4541C248.914 8.19368 249.181 7.99023 249.526 7.84375C249.871 7.69401 250.259 7.61914 250.688 7.61914C251.34 7.61914 251.855 7.78353 252.236 8.1123C252.62 8.43783 252.812 8.89681 252.812 9.48926V11.7793C252.816 12.2806 252.886 12.6598 253.022 12.917V13H251.597ZM250.43 12.0186C250.638 12.0186 250.83 11.973 251.006 11.8818C251.182 11.7874 251.312 11.6621 251.396 11.5059V10.5977H250.869C250.163 10.5977 249.787 10.8418 249.741 11.3301L249.736 11.4131C249.736 11.5889 249.798 11.7337 249.922 11.8477C250.046 11.9616 250.215 12.0186 250.43 12.0186ZM255.791 11.0029L256.768 7.7168H258.281L256.157 13.8203L256.04 14.0986C255.724 14.7887 255.203 15.1338 254.478 15.1338C254.272 15.1338 254.064 15.1029 253.853 15.041V13.9717L254.067 13.9766C254.334 13.9766 254.533 13.9359 254.663 13.8545C254.797 13.7731 254.901 13.638 254.976 13.4492L255.142 13.0146L253.291 7.7168H254.81L255.791 11.0029ZM262.705 8.82031H263.457C263.815 8.82031 264.08 8.73079 264.253 8.55176C264.425 8.37272 264.512 8.13509 264.512 7.83887C264.512 7.55241 264.425 7.32943 264.253 7.16992C264.084 7.01042 263.849 6.93066 263.55 6.93066C263.28 6.93066 263.053 7.00553 262.871 7.15527C262.689 7.30176 262.598 7.49382 262.598 7.73145H261.187C261.187 7.36035 261.286 7.02832 261.484 6.73535C261.686 6.43913 261.966 6.20801 262.324 6.04199C262.686 5.87598 263.083 5.79297 263.516 5.79297C264.268 5.79297 264.857 5.97363 265.283 6.33496C265.71 6.69303 265.923 7.18783 265.923 7.81934C265.923 8.14486 265.824 8.44434 265.625 8.71777C265.426 8.99121 265.166 9.20117 264.844 9.34766C265.244 9.49089 265.542 9.70573 265.737 9.99219C265.936 10.2786 266.035 10.6172 266.035 11.0078C266.035 11.6393 265.804 12.1455 265.342 12.5264C264.883 12.9072 264.274 13.0977 263.516 13.0977C262.806 13.0977 262.225 12.9105 261.772 12.5361C261.323 12.1618 261.099 11.667 261.099 11.0518H262.51C262.51 11.3187 262.609 11.5368 262.808 11.7061C263.009 11.8753 263.257 11.96 263.55 11.96C263.885 11.96 264.147 11.8721 264.336 11.6963C264.528 11.5173 264.624 11.2812 264.624 10.9883C264.624 10.2786 264.233 9.92383 263.452 9.92383H262.705V8.82031Z" fill="#8AB446"/>
<path d="M221.836 22H221.109V17.1836L219.652 17.7188V17.0625L221.723 16.2852H221.836V22ZM226.723 19.5C226.572 19.6797 226.391 19.8242 226.18 19.9336C225.971 20.043 225.742 20.0977 225.492 20.0977C225.164 20.0977 224.878 20.0169 224.633 19.8555C224.391 19.694 224.203 19.4674 224.07 19.1758C223.938 18.8815 223.871 18.5573 223.871 18.2031C223.871 17.8229 223.943 17.4805 224.086 17.1758C224.232 16.8711 224.438 16.638 224.703 16.4766C224.969 16.3151 225.279 16.2344 225.633 16.2344C226.195 16.2344 226.638 16.4453 226.961 16.8672C227.286 17.2865 227.449 17.8594 227.449 18.5859V18.7969C227.449 19.9036 227.23 20.7122 226.793 21.2227C226.355 21.7305 225.695 21.9909 224.812 22.0039H224.672V21.3945H224.824C225.421 21.3841 225.879 21.2292 226.199 20.9297C226.52 20.6276 226.694 20.151 226.723 19.5ZM225.609 19.5C225.852 19.5 226.074 19.4258 226.277 19.2773C226.483 19.1289 226.633 18.9453 226.727 18.7266V18.4375C226.727 17.9635 226.624 17.5781 226.418 17.2812C226.212 16.9844 225.952 16.8359 225.637 16.8359C225.319 16.8359 225.064 16.9583 224.871 17.2031C224.678 17.4453 224.582 17.7656 224.582 18.1641C224.582 18.5521 224.674 18.8724 224.859 19.125C225.047 19.375 225.297 19.5 225.609 19.5ZM232.293 19.4648C231.65 19.2799 231.181 19.0534 230.887 18.7852C230.595 18.5143 230.449 18.181 230.449 17.7852C230.449 17.3372 230.628 16.9674 230.984 16.6758C231.344 16.3815 231.81 16.2344 232.383 16.2344C232.773 16.2344 233.121 16.3099 233.426 16.4609C233.733 16.612 233.97 16.8203 234.137 17.0859C234.306 17.3516 234.391 17.6419 234.391 17.957H233.637C233.637 17.6133 233.527 17.3438 233.309 17.1484C233.09 16.9505 232.781 16.8516 232.383 16.8516C232.013 16.8516 231.724 16.9336 231.516 17.0977C231.31 17.2591 231.207 17.4844 231.207 17.7734C231.207 18.0052 231.305 18.2018 231.5 18.3633C231.698 18.5221 232.033 18.668 232.504 18.8008C232.978 18.9336 233.348 19.0807 233.613 19.2422C233.882 19.401 234.079 19.5872 234.207 19.8008C234.337 20.0143 234.402 20.2656 234.402 20.5547C234.402 21.0156 234.223 21.3854 233.863 21.6641C233.504 21.9401 233.023 22.0781 232.422 22.0781C232.031 22.0781 231.667 22.0039 231.328 21.8555C230.99 21.7044 230.728 21.4987 230.543 21.2383C230.361 20.9779 230.27 20.6823 230.27 20.3516H231.023C231.023 20.6953 231.15 20.9674 231.402 21.168C231.658 21.3659 231.997 21.4648 232.422 21.4648C232.818 21.4648 233.121 21.3841 233.332 21.2227C233.543 21.0612 233.648 20.8411 233.648 20.5625C233.648 20.2839 233.551 20.069 233.355 19.918C233.16 19.7643 232.806 19.6133 232.293 19.4648ZM237.008 22.0781C236.435 22.0781 235.969 21.8906 235.609 21.5156C235.25 21.138 235.07 20.6341 235.07 20.0039V19.8711C235.07 19.4518 235.15 19.0781 235.309 18.75C235.47 18.4193 235.694 18.1615 235.98 17.9766C236.27 17.7891 236.582 17.6953 236.918 17.6953C237.467 17.6953 237.895 17.8763 238.199 18.2383C238.504 18.6003 238.656 19.1185 238.656 19.793V20.0938H235.793C235.803 20.5104 235.924 20.8477 236.156 21.1055C236.391 21.3607 236.688 21.4883 237.047 21.4883C237.302 21.4883 237.518 21.4362 237.695 21.332C237.872 21.2279 238.027 21.0898 238.16 20.918L238.602 21.2617C238.247 21.806 237.716 22.0781 237.008 22.0781ZM236.918 18.2891C236.626 18.2891 236.382 18.3958 236.184 18.6094C235.986 18.8203 235.863 19.1172 235.816 19.5H237.934V19.4453C237.913 19.0781 237.814 18.7943 237.637 18.5938C237.46 18.3906 237.22 18.2891 236.918 18.2891ZM243.066 19.9336C243.066 20.5768 242.919 21.0951 242.625 21.4883C242.331 21.8815 241.932 22.0781 241.43 22.0781C240.917 22.0781 240.513 21.9154 240.219 21.5898V23.625H239.496V17.7734H240.156L240.191 18.2422C240.486 17.8776 240.895 17.6953 241.418 17.6953C241.926 17.6953 242.327 17.8867 242.621 18.2695C242.918 18.6523 243.066 19.1849 243.066 19.8672V19.9336ZM242.344 19.8516C242.344 19.375 242.242 18.9987 242.039 18.7227C241.836 18.4466 241.557 18.3086 241.203 18.3086C240.766 18.3086 240.438 18.5026 240.219 18.8906V20.9102C240.435 21.2956 240.766 21.4883 241.211 21.4883C241.557 21.4883 241.832 21.3516 242.035 21.0781C242.241 20.8021 242.344 20.3932 242.344 19.8516ZM244.969 16.75V17.7734H245.758V18.332H244.969V20.9531C244.969 21.1224 245.004 21.25 245.074 21.3359C245.145 21.4193 245.264 21.4609 245.434 21.4609C245.517 21.4609 245.632 21.4453 245.777 21.4141V22C245.587 22.0521 245.402 22.0781 245.223 22.0781C244.9 22.0781 244.656 21.9805 244.492 21.7852C244.328 21.5898 244.246 21.3125 244.246 20.9531V18.332H243.477V17.7734H244.246V16.75H244.969ZM252.242 22H248.516V21.4805L250.484 19.293C250.776 18.9622 250.977 18.694 251.086 18.4883C251.198 18.2799 251.254 18.0651 251.254 17.8438C251.254 17.5469 251.164 17.3034 250.984 17.1133C250.805 16.9232 250.565 16.8281 250.266 16.8281C249.906 16.8281 249.626 16.931 249.426 17.1367C249.228 17.3398 249.129 17.6237 249.129 17.9883H248.406C248.406 17.4648 248.574 17.0417 248.91 16.7188C249.249 16.3958 249.701 16.2344 250.266 16.2344C250.794 16.2344 251.212 16.3737 251.52 16.6523C251.827 16.9284 251.98 17.2969 251.98 17.7578C251.98 18.3177 251.624 18.9844 250.91 19.7578L249.387 21.4102H252.242V22ZM256.574 19.5742C256.574 20.4206 256.43 21.0495 256.141 21.4609C255.852 21.8724 255.4 22.0781 254.785 22.0781C254.178 22.0781 253.729 21.8776 253.438 21.4766C253.146 21.0729 252.995 20.4714 252.984 19.6719V18.707C252.984 17.8711 253.129 17.25 253.418 16.8438C253.707 16.4375 254.16 16.2344 254.777 16.2344C255.389 16.2344 255.84 16.431 256.129 16.8242C256.418 17.2148 256.566 17.819 256.574 18.6367V19.5742ZM255.852 18.5859C255.852 17.974 255.766 17.5286 255.594 17.25C255.422 16.9688 255.15 16.8281 254.777 16.8281C254.408 16.8281 254.138 16.9674 253.969 17.2461C253.799 17.5247 253.712 17.9531 253.707 18.5312V19.6875C253.707 20.3021 253.796 20.7565 253.973 21.0508C254.152 21.3424 254.423 21.4883 254.785 21.4883C255.142 21.4883 255.406 21.3503 255.578 21.0742C255.753 20.7982 255.844 20.3633 255.852 19.7695V18.5859ZM261.227 22H257.5V21.4805L259.469 19.293C259.76 18.9622 259.961 18.694 260.07 18.4883C260.182 18.2799 260.238 18.0651 260.238 17.8438C260.238 17.5469 260.148 17.3034 259.969 17.1133C259.789 16.9232 259.549 16.8281 259.25 16.8281C258.891 16.8281 258.611 16.931 258.41 17.1367C258.212 17.3398 258.113 17.6237 258.113 17.9883H257.391C257.391 17.4648 257.559 17.0417 257.895 16.7188C258.233 16.3958 258.685 16.2344 259.25 16.2344C259.779 16.2344 260.197 16.3737 260.504 16.6523C260.811 16.9284 260.965 17.2969 260.965 17.7578C260.965 18.3177 260.608 18.9844 259.895 19.7578L258.371 21.4102H261.227V22ZM264.367 22H263.641V17.1836L262.184 17.7188V17.0625L264.254 16.2852H264.367V22Z" fill="#515252"/>
<path d="M117.571 51.8232H120.682V53H116.106V45.8906H117.571V51.8232ZM123.753 50.1484L122.991 50.9688V53H121.526V45.8906H122.991V49.1133L123.636 48.2295L125.447 45.8906H127.249L124.725 49.0498L127.322 53H125.579L123.753 50.1484ZM129.788 45.8906L131.614 51.0469L133.431 45.8906H135.354V53H133.885V51.0566L134.031 47.7021L132.112 53H131.106L129.192 47.707L129.339 51.0566V53H127.874V45.8906H129.788ZM139.124 53V45.8906H141.312C141.937 45.8906 142.495 46.0322 142.986 46.3154C143.481 46.5954 143.867 46.9958 144.144 47.5166C144.42 48.0342 144.559 48.6234 144.559 49.2842V49.6113C144.559 50.2721 144.422 50.8597 144.148 51.374C143.878 51.8883 143.496 52.2871 143.001 52.5703C142.506 52.8535 141.948 52.9967 141.326 53H139.124ZM140.589 47.0771V51.8232H141.297C141.87 51.8232 142.308 51.6361 142.61 51.2617C142.913 50.8874 143.068 50.3519 143.074 49.6553V49.2793C143.074 48.5566 142.924 48.0098 142.625 47.6387C142.326 47.2643 141.888 47.0771 141.312 47.0771H140.589ZM148.597 53C148.532 52.873 148.484 52.7152 148.455 52.5264C148.113 52.9072 147.669 53.0977 147.122 53.0977C146.604 53.0977 146.175 52.9479 145.833 52.6484C145.494 52.349 145.325 51.9714 145.325 51.5156C145.325 50.9557 145.532 50.526 145.945 50.2266C146.362 49.9271 146.963 49.7757 147.747 49.7725H148.396V49.4697C148.396 49.2256 148.333 49.0303 148.206 48.8838C148.082 48.7373 147.885 48.6641 147.615 48.6641C147.378 48.6641 147.19 48.721 147.054 48.835C146.92 48.9489 146.854 49.1051 146.854 49.3037H145.442C145.442 48.9977 145.537 48.7145 145.726 48.4541C145.914 48.1937 146.181 47.9902 146.526 47.8438C146.871 47.694 147.259 47.6191 147.688 47.6191C148.34 47.6191 148.855 47.7835 149.236 48.1123C149.62 48.4378 149.812 48.8968 149.812 49.4893V51.7793C149.816 52.2806 149.886 52.6598 150.022 52.917V53H148.597ZM147.43 52.0186C147.638 52.0186 147.83 51.973 148.006 51.8818C148.182 51.7874 148.312 51.6621 148.396 51.5059V50.5977H147.869C147.163 50.5977 146.787 50.8418 146.741 51.3301L146.736 51.4131C146.736 51.5889 146.798 51.7337 146.922 51.8477C147.046 51.9616 147.215 52.0186 147.43 52.0186ZM152.791 51.0029L153.768 47.7168H155.281L153.157 53.8203L153.04 54.0986C152.724 54.7887 152.203 55.1338 151.478 55.1338C151.272 55.1338 151.064 55.1029 150.853 55.041V53.9717L151.067 53.9766C151.334 53.9766 151.533 53.9359 151.663 53.8545C151.797 53.7731 151.901 53.638 151.976 53.4492L152.142 53.0146L150.291 47.7168H151.81L152.791 51.0029ZM163.143 53H158.27V52.0332L160.569 49.582C160.885 49.237 161.118 48.9359 161.268 48.6787C161.421 48.4215 161.497 48.1774 161.497 47.9463C161.497 47.6305 161.417 47.3831 161.258 47.2041C161.098 47.0218 160.87 46.9307 160.574 46.9307C160.255 46.9307 160.003 47.0413 159.817 47.2627C159.635 47.4808 159.544 47.7689 159.544 48.127H158.128C158.128 47.694 158.23 47.2985 158.436 46.9404C158.644 46.5824 158.937 46.3024 159.314 46.1006C159.692 45.8955 160.12 45.793 160.599 45.793C161.331 45.793 161.899 45.9688 162.303 46.3203C162.71 46.6719 162.913 47.1683 162.913 47.8096C162.913 48.1611 162.822 48.5192 162.64 48.8838C162.457 49.2484 162.145 49.6732 161.702 50.1582L160.086 51.8623H163.143V53Z" fill="#8AB446"/>
<path d="M118.836 62H118.109V57.1836L116.652 57.7188V57.0625L118.723 56.2852H118.836V62ZM123.328 62H122.602V57.1836L121.145 57.7188V57.0625L123.215 56.2852H123.328V62ZM129.293 59.4648C128.65 59.2799 128.181 59.0534 127.887 58.7852C127.595 58.5143 127.449 58.181 127.449 57.7852C127.449 57.3372 127.628 56.9674 127.984 56.6758C128.344 56.3815 128.81 56.2344 129.383 56.2344C129.773 56.2344 130.121 56.3099 130.426 56.4609C130.733 56.612 130.97 56.8203 131.137 57.0859C131.306 57.3516 131.391 57.6419 131.391 57.957H130.637C130.637 57.6133 130.527 57.3438 130.309 57.1484C130.09 56.9505 129.781 56.8516 129.383 56.8516C129.013 56.8516 128.724 56.9336 128.516 57.0977C128.31 57.2591 128.207 57.4844 128.207 57.7734C128.207 58.0052 128.305 58.2018 128.5 58.3633C128.698 58.5221 129.033 58.668 129.504 58.8008C129.978 58.9336 130.348 59.0807 130.613 59.2422C130.882 59.401 131.079 59.5872 131.207 59.8008C131.337 60.0143 131.402 60.2656 131.402 60.5547C131.402 61.0156 131.223 61.3854 130.863 61.6641C130.504 61.9401 130.023 62.0781 129.422 62.0781C129.031 62.0781 128.667 62.0039 128.328 61.8555C127.99 61.7044 127.728 61.4987 127.543 61.2383C127.361 60.9779 127.27 60.6823 127.27 60.3516H128.023C128.023 60.6953 128.15 60.9674 128.402 61.168C128.658 61.3659 128.997 61.4648 129.422 61.4648C129.818 61.4648 130.121 61.3841 130.332 61.2227C130.543 61.0612 130.648 60.8411 130.648 60.5625C130.648 60.2839 130.551 60.069 130.355 59.918C130.16 59.7643 129.806 59.6133 129.293 59.4648ZM134.008 62.0781C133.435 62.0781 132.969 61.8906 132.609 61.5156C132.25 61.138 132.07 60.6341 132.07 60.0039V59.8711C132.07 59.4518 132.15 59.0781 132.309 58.75C132.47 58.4193 132.694 58.1615 132.98 57.9766C133.27 57.7891 133.582 57.6953 133.918 57.6953C134.467 57.6953 134.895 57.8763 135.199 58.2383C135.504 58.6003 135.656 59.1185 135.656 59.793V60.0938H132.793C132.803 60.5104 132.924 60.8477 133.156 61.1055C133.391 61.3607 133.688 61.4883 134.047 61.4883C134.302 61.4883 134.518 61.4362 134.695 61.332C134.872 61.2279 135.027 61.0898 135.16 60.918L135.602 61.2617C135.247 61.806 134.716 62.0781 134.008 62.0781ZM133.918 58.2891C133.626 58.2891 133.382 58.3958 133.184 58.6094C132.986 58.8203 132.863 59.1172 132.816 59.5H134.934V59.4453C134.913 59.0781 134.814 58.7943 134.637 58.5938C134.46 58.3906 134.22 58.2891 133.918 58.2891ZM140.066 59.9336C140.066 60.5768 139.919 61.0951 139.625 61.4883C139.331 61.8815 138.932 62.0781 138.43 62.0781C137.917 62.0781 137.513 61.9154 137.219 61.5898V63.625H136.496V57.7734H137.156L137.191 58.2422C137.486 57.8776 137.895 57.6953 138.418 57.6953C138.926 57.6953 139.327 57.8867 139.621 58.2695C139.918 58.6523 140.066 59.1849 140.066 59.8672V59.9336ZM139.344 59.8516C139.344 59.375 139.242 58.9987 139.039 58.7227C138.836 58.4466 138.557 58.3086 138.203 58.3086C137.766 58.3086 137.438 58.5026 137.219 58.8906V60.9102C137.435 61.2956 137.766 61.4883 138.211 61.4883C138.557 61.4883 138.832 61.3516 139.035 61.0781C139.241 60.8021 139.344 60.3932 139.344 59.8516ZM141.969 56.75V57.7734H142.758V58.332H141.969V60.9531C141.969 61.1224 142.004 61.25 142.074 61.3359C142.145 61.4193 142.264 61.4609 142.434 61.4609C142.517 61.4609 142.632 61.4453 142.777 61.4141V62C142.587 62.0521 142.402 62.0781 142.223 62.0781C141.9 62.0781 141.656 61.9805 141.492 61.7852C141.328 61.5898 141.246 61.3125 141.246 60.9531V58.332H140.477V57.7734H141.246V56.75H141.969ZM149.242 62H145.516V61.4805L147.484 59.293C147.776 58.9622 147.977 58.694 148.086 58.4883C148.198 58.2799 148.254 58.0651 148.254 57.8438C148.254 57.5469 148.164 57.3034 147.984 57.1133C147.805 56.9232 147.565 56.8281 147.266 56.8281C146.906 56.8281 146.626 56.931 146.426 57.1367C146.228 57.3398 146.129 57.6237 146.129 57.9883H145.406C145.406 57.4648 145.574 57.0417 145.91 56.7188C146.249 56.3958 146.701 56.2344 147.266 56.2344C147.794 56.2344 148.212 56.3737 148.52 56.6523C148.827 56.9284 148.98 57.2969 148.98 57.7578C148.98 58.3177 148.624 58.9844 147.91 59.7578L146.387 61.4102H149.242V62ZM153.574 59.5742C153.574 60.4206 153.43 61.0495 153.141 61.4609C152.852 61.8724 152.4 62.0781 151.785 62.0781C151.178 62.0781 150.729 61.8776 150.438 61.4766C150.146 61.0729 149.995 60.4714 149.984 59.6719V58.707C149.984 57.8711 150.129 57.25 150.418 56.8438C150.707 56.4375 151.16 56.2344 151.777 56.2344C152.389 56.2344 152.84 56.431 153.129 56.8242C153.418 57.2148 153.566 57.819 153.574 58.6367V59.5742ZM152.852 58.5859C152.852 57.974 152.766 57.5286 152.594 57.25C152.422 56.9688 152.15 56.8281 151.777 56.8281C151.408 56.8281 151.138 56.9674 150.969 57.2461C150.799 57.5247 150.712 57.9531 150.707 58.5312V59.6875C150.707 60.3021 150.796 60.7565 150.973 61.0508C151.152 61.3424 151.423 61.4883 151.785 61.4883C152.142 61.4883 152.406 61.3503 152.578 61.0742C152.753 60.7982 152.844 60.3633 152.852 59.7695V58.5859ZM158.227 62H154.5V61.4805L156.469 59.293C156.76 58.9622 156.961 58.694 157.07 58.4883C157.182 58.2799 157.238 58.0651 157.238 57.8438C157.238 57.5469 157.148 57.3034 156.969 57.1133C156.789 56.9232 156.549 56.8281 156.25 56.8281C155.891 56.8281 155.611 56.931 155.41 57.1367C155.212 57.3398 155.113 57.6237 155.113 57.9883H154.391C154.391 57.4648 154.559 57.0417 154.895 56.7188C155.233 56.3958 155.685 56.2344 156.25 56.2344C156.779 56.2344 157.197 56.3737 157.504 56.6523C157.811 56.9284 157.965 57.2969 157.965 57.7578C157.965 58.3177 157.608 58.9844 156.895 59.7578L155.371 61.4102H158.227V62ZM161.367 62H160.641V57.1836L159.184 57.7188V57.0625L161.254 56.2852H161.367V62Z" fill="#515252"/>
<path d="M13.5713 11.8232H16.6816V13H12.1064V5.89062H13.5713V11.8232ZM19.7529 10.1484L18.9912 10.9688V13H17.5264V5.89062H18.9912V9.11328L19.6357 8.22949L21.4473 5.89062H23.249L20.7246 9.0498L23.3223 13H21.5791L19.7529 10.1484ZM25.7881 5.89062L27.6143 11.0469L29.4307 5.89062H31.3545V13H29.8848V11.0566L30.0312 7.70215L28.1123 13H27.1064L25.1924 7.70703L25.3389 11.0566V13H23.874V5.89062H25.7881ZM35.124 13V5.89062H37.3115C37.9365 5.89062 38.4948 6.03223 38.9863 6.31543C39.4811 6.59538 39.8669 6.99577 40.1436 7.5166C40.4202 8.03418 40.5586 8.62337 40.5586 9.28418V9.61133C40.5586 10.2721 40.4219 10.8597 40.1484 11.374C39.8783 11.8883 39.4958 12.2871 39.001 12.5703C38.5062 12.8535 37.9479 12.9967 37.3262 13H35.124ZM36.5889 7.07715V11.8232H37.2969C37.8698 11.8232 38.3076 11.6361 38.6104 11.2617C38.9131 10.8874 39.0677 10.3519 39.0742 9.65527V9.2793C39.0742 8.55664 38.9245 8.00977 38.625 7.63867C38.3255 7.26432 37.8877 7.07715 37.3115 7.07715H36.5889ZM44.5967 13C44.5316 12.873 44.4844 12.7152 44.4551 12.5264C44.1133 12.9072 43.6689 13.0977 43.1221 13.0977C42.6045 13.0977 42.1748 12.9479 41.833 12.6484C41.4945 12.349 41.3252 11.9714 41.3252 11.5156C41.3252 10.9557 41.5319 10.526 41.9453 10.2266C42.362 9.92708 42.9626 9.77572 43.7471 9.77246H44.3965V9.46973C44.3965 9.22559 44.333 9.03027 44.2061 8.88379C44.0824 8.7373 43.8854 8.66406 43.6152 8.66406C43.3776 8.66406 43.1904 8.72103 43.0537 8.83496C42.9202 8.94889 42.8535 9.10514 42.8535 9.30371H41.4424C41.4424 8.99772 41.5368 8.71452 41.7256 8.4541C41.9144 8.19368 42.1813 7.99023 42.5264 7.84375C42.8714 7.69401 43.2588 7.61914 43.6885 7.61914C44.3395 7.61914 44.8555 7.78353 45.2363 8.1123C45.6204 8.43783 45.8125 8.89681 45.8125 9.48926V11.7793C45.8158 12.2806 45.8857 12.6598 46.0225 12.917V13H44.5967ZM43.4297 12.0186C43.638 12.0186 43.8301 11.973 44.0059 11.8818C44.1816 11.7874 44.3118 11.6621 44.3965 11.5059V10.5977H43.8691C43.1628 10.5977 42.7868 10.8418 42.7412 11.3301L42.7363 11.4131C42.7363 11.5889 42.7982 11.7337 42.9219 11.8477C43.0456 11.9616 43.2148 12.0186 43.4297 12.0186ZM48.791 11.0029L49.7676 7.7168H51.2812L49.1572 13.8203L49.04 14.0986C48.7243 14.7887 48.2035 15.1338 47.4775 15.1338C47.2725 15.1338 47.0641 15.1029 46.8525 15.041V13.9717L47.0674 13.9766C47.3343 13.9766 47.5329 13.9359 47.6631 13.8545C47.7965 13.7731 47.9007 13.638 47.9756 13.4492L48.1416 13.0146L46.291 7.7168H47.8096L48.791 11.0029ZM57.6973 13H56.2861V7.56055L54.6016 8.08301V6.93555L57.5459 5.88086H57.6973V13Z" fill="#8AB446"/>
<path d="M17.7578 20.0898H18.5469V20.6797H17.7578V22H17.0312V20.6797H14.4414V20.2539L16.9883 16.3125H17.7578V20.0898ZM15.2617 20.0898H17.0312V17.3008L16.9453 17.457L15.2617 20.0898ZM23.0469 19.4648C22.4036 19.2799 21.9349 19.0534 21.6406 18.7852C21.349 18.5143 21.2031 18.181 21.2031 17.7852C21.2031 17.3372 21.3815 16.9674 21.7383 16.6758C22.0977 16.3815 22.5638 16.2344 23.1367 16.2344C23.5273 16.2344 23.875 16.3099 24.1797 16.4609C24.487 16.612 24.724 16.8203 24.8906 17.0859C25.0599 17.3516 25.1445 17.6419 25.1445 17.957H24.3906C24.3906 17.6133 24.2812 17.3438 24.0625 17.1484C23.8438 16.9505 23.5352 16.8516 23.1367 16.8516C22.7669 16.8516 22.4779 16.9336 22.2695 17.0977C22.0638 17.2591 21.9609 17.4844 21.9609 17.7734C21.9609 18.0052 22.0586 18.2018 22.2539 18.3633C22.4518 18.5221 22.7865 18.668 23.2578 18.8008C23.7318 18.9336 24.1016 19.0807 24.3672 19.2422C24.6354 19.401 24.8333 19.5872 24.9609 19.8008C25.0911 20.0143 25.1562 20.2656 25.1562 20.5547C25.1562 21.0156 24.9766 21.3854 24.6172 21.6641C24.2578 21.9401 23.7773 22.0781 23.1758 22.0781C22.7852 22.0781 22.4206 22.0039 22.082 21.8555C21.7435 21.7044 21.4818 21.4987 21.2969 21.2383C21.1146 20.9779 21.0234 20.6823 21.0234 20.3516H21.7773C21.7773 20.6953 21.9036 20.9674 22.1562 21.168C22.4115 21.3659 22.7513 21.4648 23.1758 21.4648C23.5716 21.4648 23.875 21.3841 24.0859 21.2227C24.2969 21.0612 24.4023 20.8411 24.4023 20.5625C24.4023 20.2839 24.3047 20.069 24.1094 19.918C23.9141 19.7643 23.5599 19.6133 23.0469 19.4648ZM27.7617 22.0781C27.1888 22.0781 26.7227 21.8906 26.3633 21.5156C26.0039 21.138 25.8242 20.6341 25.8242 20.0039V19.8711C25.8242 19.4518 25.9036 19.0781 26.0625 18.75C26.224 18.4193 26.4479 18.1615 26.7344 17.9766C27.0234 17.7891 27.3359 17.6953 27.6719 17.6953C28.2214 17.6953 28.6484 17.8763 28.9531 18.2383C29.2578 18.6003 29.4102 19.1185 29.4102 19.793V20.0938H26.5469C26.5573 20.5104 26.6784 20.8477 26.9102 21.1055C27.1445 21.3607 27.4414 21.4883 27.8008 21.4883C28.056 21.4883 28.2721 21.4362 28.4492 21.332C28.6263 21.2279 28.7812 21.0898 28.9141 20.918L29.3555 21.2617C29.0013 21.806 28.4701 22.0781 27.7617 22.0781ZM27.6719 18.2891C27.3802 18.2891 27.1354 18.3958 26.9375 18.6094C26.7396 18.8203 26.6172 19.1172 26.5703 19.5H28.6875V19.4453C28.6667 19.0781 28.5677 18.7943 28.3906 18.5938C28.2135 18.3906 27.974 18.2891 27.6719 18.2891ZM33.8203 19.9336C33.8203 20.5768 33.6732 21.0951 33.3789 21.4883C33.0846 21.8815 32.6862 22.0781 32.1836 22.0781C31.6706 22.0781 31.2669 21.9154 30.9727 21.5898V23.625H30.25V17.7734H30.9102L30.9453 18.2422C31.2396 17.8776 31.6484 17.6953 32.1719 17.6953C32.6797 17.6953 33.0807 17.8867 33.375 18.2695C33.6719 18.6523 33.8203 19.1849 33.8203 19.8672V19.9336ZM33.0977 19.8516C33.0977 19.375 32.9961 18.9987 32.793 18.7227C32.5898 18.4466 32.3112 18.3086 31.957 18.3086C31.5195 18.3086 31.1914 18.5026 30.9727 18.8906V20.9102C31.1888 21.2956 31.5195 21.4883 31.9648 21.4883C32.3112 21.4883 32.5859 21.3516 32.7891 21.0781C32.9948 20.8021 33.0977 20.3932 33.0977 19.8516ZM35.7227 16.75V17.7734H36.5117V18.332H35.7227V20.9531C35.7227 21.1224 35.7578 21.25 35.8281 21.3359C35.8984 21.4193 36.0182 21.4609 36.1875 21.4609C36.2708 21.4609 36.3854 21.4453 36.5312 21.4141V22C36.3411 22.0521 36.1562 22.0781 35.9766 22.0781C35.6536 22.0781 35.4102 21.9805 35.2461 21.7852C35.082 21.5898 35 21.3125 35 20.9531V18.332H34.2305V17.7734H35V16.75H35.7227ZM42.9961 22H39.2695V21.4805L41.2383 19.293C41.5299 18.9622 41.7305 18.694 41.8398 18.4883C41.9518 18.2799 42.0078 18.0651 42.0078 17.8438C42.0078 17.5469 41.918 17.3034 41.7383 17.1133C41.5586 16.9232 41.319 16.8281 41.0195 16.8281C40.6602 16.8281 40.3802 16.931 40.1797 17.1367C39.9818 17.3398 39.8828 17.6237 39.8828 17.9883H39.1602C39.1602 17.4648 39.3281 17.0417 39.6641 16.7188C40.0026 16.3958 40.4544 16.2344 41.0195 16.2344C41.5482 16.2344 41.9661 16.3737 42.2734 16.6523C42.5807 16.9284 42.7344 17.2969 42.7344 17.7578C42.7344 18.3177 42.3776 18.9844 41.6641 19.7578L40.1406 21.4102H42.9961V22ZM47.3281 19.5742C47.3281 20.4206 47.1836 21.0495 46.8945 21.4609C46.6055 21.8724 46.1536 22.0781 45.5391 22.0781C44.9323 22.0781 44.4831 21.8776 44.1914 21.4766C43.8997 21.0729 43.7487 20.4714 43.7383 19.6719V18.707C43.7383 17.8711 43.8828 17.25 44.1719 16.8438C44.4609 16.4375 44.9141 16.2344 45.5312 16.2344C46.1432 16.2344 46.5938 16.431 46.8828 16.8242C47.1719 17.2148 47.3203 17.819 47.3281 18.6367V19.5742ZM46.6055 18.5859C46.6055 17.974 46.5195 17.5286 46.3477 17.25C46.1758 16.9688 45.9036 16.8281 45.5312 16.8281C45.1615 16.8281 44.8919 16.9674 44.7227 17.2461C44.5534 17.5247 44.4661 17.9531 44.4609 18.5312V19.6875C44.4609 20.3021 44.5495 20.7565 44.7266 21.0508C44.9062 21.3424 45.1771 21.4883 45.5391 21.4883C45.8958 21.4883 46.1602 21.3503 46.332 21.0742C46.5065 20.7982 46.5977 20.3633 46.6055 19.7695V18.5859ZM51.9805 22H48.2539V21.4805L50.2227 19.293C50.5143 18.9622 50.7148 18.694 50.8242 18.4883C50.9362 18.2799 50.9922 18.0651 50.9922 17.8438C50.9922 17.5469 50.9023 17.3034 50.7227 17.1133C50.543 16.9232 50.3034 16.8281 50.0039 16.8281C49.6445 16.8281 49.3646 16.931 49.1641 17.1367C48.9661 17.3398 48.8672 17.6237 48.8672 17.9883H48.1445C48.1445 17.4648 48.3125 17.0417 48.6484 16.7188C48.987 16.3958 49.4388 16.2344 50.0039 16.2344C50.5326 16.2344 50.9505 16.3737 51.2578 16.6523C51.5651 16.9284 51.7188 17.2969 51.7188 17.7578C51.7188 18.3177 51.362 18.9844 50.6484 19.7578L49.125 21.4102H51.9805V22ZM55.1211 22H54.3945V17.1836L52.9375 17.7188V17.0625L55.0078 16.2852H55.1211V22Z" fill="#515252"/>
<line x1="35" y1="34" x2="243" y2="34" stroke="#8AB446" stroke-width="2"/>
<line x1="35" y1="136" x2="243" y2="136" stroke="#2D6B22" stroke-width="2"/>
<line x1="87" y1="85" x2="243" y2="85" stroke="#8AB446" stroke-width="2"/>
<line x1="35" y1="85" x2="87" y2="85" stroke="#2D6B22" stroke-width="2"/>
<mask id="path-17-inside-1" fill="white">
<path d="M242.5 86C249.528 86 256.269 83.208 261.238 78.2383C266.208 73.2686 269 66.5282 269 59.5C269 52.4718 266.208 45.7314 261.238 40.7617C256.269 35.792 249.528 33 242.5 33L242.5 35.0309C248.99 35.0309 255.213 37.6089 259.802 42.1977C264.391 46.7866 266.969 53.0104 266.969 59.5C266.969 65.9896 264.391 72.2134 259.802 76.8023C255.213 81.3911 248.99 83.9691 242.5 83.9691L242.5 86Z"/>
</mask>
<path d="M242.5 86C249.528 86 256.269 83.208 261.238 78.2383C266.208 73.2686 269 66.5282 269 59.5C269 52.4718 266.208 45.7314 261.238 40.7617C256.269 35.792 249.528 33 242.5 33L242.5 35.0309C248.99 35.0309 255.213 37.6089 259.802 42.1977C264.391 46.7866 266.969 53.0104 266.969 59.5C266.969 65.9896 264.391 72.2134 259.802 76.8023C255.213 81.3911 248.99 83.9691 242.5 83.9691L242.5 86Z" fill="#8AB446" stroke="#8AB446" stroke-width="2" mask="url(#path-17-inside-1)"/>
<path d="M35.5 84C28.4718 84 21.7314 86.792 16.7617 91.7617C11.792 96.7314 9 103.472 9 110.5C9 117.528 11.792 124.269 16.7617 129.238C21.7314 134.208 28.4718 137 35.5 137L35.5 134.969C29.0104 134.969 22.7866 132.391 18.1977 127.802C13.6089 123.213 11.0309 116.99 11.0309 110.5C11.0309 104.01 13.6089 97.7866 18.1977 93.1977C22.7866 88.6089 29.0104 86.0309 35.5 86.0309L35.5 84Z" fill="#2D6B22"/>
<circle cx="35" cy="34" r="6" fill="#8AB446"/>
<circle cx="139" cy="34" r="6" fill="#8AB446"/>
<circle cx="243" cy="34" r="6" fill="#8AB446"/>
<circle cx="35" cy="136" r="6" fill="#2D6B22"/>
<circle cx="139" cy="136" r="6" fill="#2D6B22"/>
<circle cx="87" cy="85" r="6" fill="#8AB446"/>
<circle cx="191" cy="85" r="6" fill="#8AB446"/>
<circle cx="243" cy="136" r="6" fill="#2D6B22"/>
</svg>
